<?xml version="1.0" encoding="UTF-8"?>
<svg width="24px" height="19px" viewBox="0 0 24 19" version="1.1" xmlns="http://www.w3.org/2000/svg" xmlns:xlink="http://www.w3.org/1999/xlink">
    <!-- Generator: Sketch 51.1 (57501) - http://www.bohemiancoding.com/sketch -->
    <title>envelope</title>
    <desc>Created with Sketch.</desc>
    <defs></defs>
    <g id="Page-1" stroke="none" stroke-width="1" fill="none" fill-rule="evenodd">
        <g id="physics" transform="translate(-119.000000, -581.000000)" fill="#F8F8F8" fill-rule="nonzero">
            <g id="Group-Copy" transform="translate(97.000000, 504.000000)">
                <g id="Group-4" transform="translate(0.000000, 57.000000)">
                    <g id="envelope" transform="translate(22.000000, 20.000000)">
                        <path d="M21.9999844,0 L2.00001562,0 C0.896953125,0 0,0.912689145 0,2.03510362 L0,16.2807336 C0,17.4031003 0.896953125,18.3157895 2.00001562,18.3157895 L22.0000312,18.3157895 C23.1030469,18.3157895 24,17.4031003 24,16.2806859 L24,2.03510362 C24,0.912689145 23.1030469,0 21.9999844,0 Z M2.00001562,1.01752796 L22.0000312,1.01752796 C22.0737187,1.01752796 22.1386406,1.04485855 22.2077812,1.0603125 C20.4762656,2.67281743 14.7348281,8.01740296 12.725625,9.85942763 C12.5684062,10.0035214 12.315,10.1754227 12.0000469,10.1754227 C11.6850937,10.1754227 11.4316875,10.0035214 11.2739531,9.85895066 C9.2649375,8.01721217 3.52317187,2.67234046 1.7919375,1.06040789 C1.86121875,1.04495395 1.92628125,1.01752796 2.00001562,1.01752796 Z M0.999984375,16.2806859 L0.999984375,2.03510362 C0.999984375,1.93541612 1.02951563,1.84498191 1.05595313,1.75387993 C2.38120312,2.98809704 6.38732812,6.71726809 8.98495312,9.12088158 C6.39576562,11.3839786 2.38860937,15.2497549 1.0528125,16.5458832 C1.02923438,16.4593602 0.999984375,16.3747451 0.999984375,16.2806859 Z M21.9999844,17.2982615 L2.00001563,17.2982615 C1.92014063,17.2982615 1.849125,17.2699293 1.77454688,17.2518043 C3.154875,15.9128437 7.18753125,12.0248405 9.73120312,9.81058553 C10.0627969,10.1166595 10.3657031,10.3957368 10.6044844,10.6146678 C11.0166094,10.9932895 11.499,11.1929984 12,11.1929984 C12.501,11.1929984 12.9833906,10.9932418 13.395,10.6151447 C13.633875,10.3961184 13.9370156,10.1168026 14.2687969,9.81058553 C16.8126094,12.024602 20.8447031,15.9123191 22.2254531,17.2518043 C22.150875,17.2699293 22.0799531,17.2982615 21.9999844,17.2982615 Z M23.0000156,16.2806859 C23.0000156,16.3746974 22.9707656,16.4593602 22.9472344,16.5458832 C21.6109219,15.2490872 17.6042344,11.3837401 15.0150937,9.12092928 C17.6128125,6.71731579 21.6183281,2.98847862 22.9440469,1.75378454 C22.9704844,1.84488651 23.0000156,1.93536842 23.0000156,2.03505592 L23.0000156,16.2806859 Z" id="Shape"></path>
                    </g>
                </g>
            </g>
        </g>
    </g>
</svg>