<?xml version="1.0" encoding="UTF-8"?>
<svg width="849px" height="750px" viewBox="0 0 849 750" version="1.1" xmlns="http://www.w3.org/2000/svg" xmlns:xlink="http://www.w3.org/1999/xlink">
    <!-- Generator: Sketch 51.1 (57501) - http://www.bohemiancoding.com/sketch -->
    <title>Group 3</title>
    <desc>Created with Sketch.</desc>
    <defs>
        <path d="M0.106599995,751 C-1.93906572,612.560401 25.4576824,516.61932 82.2968442,463.176754 C167.555587,383.012906 232.315818,369.848629 284.880532,320.922448 C337.445247,271.996266 356.664564,182.304812 386.250855,145.702467 C415.837145,109.100122 459.298386,65.9863303 530.839135,34.6544089 C578.532968,13.7664613 628.633466,2.21499169 681.14063,0 L820,0 L820,751 L0.106599995,751 Z" id="path-1"></path>
    </defs>
    <g id="Page-1" stroke="none" stroke-width="1" fill="none" fill-rule="evenodd">
        <g id="Maths" transform="translate(-591.000000, 0.000000)">
            <g id="Group-3" transform="translate(591.000000, 0.000000)">
                <path d="M0.7265625,754.976563 C-1.30989583,617.278646 25.9635417,521.851562 82.546875,468.695313 C167.421875,388.960938 256.773438,364.773437 309.101562,316.109375 C361.429687,267.445312 388.1875,185.835937 417.640625,149.429688 C447.09375,113.023438 474.359375,75.9765625 545.578125,44.8125 C593.057292,24.0364583 637.429688,11.765625 678.695312,8 L816.929687,8 L816.929687,754.976563 L0.7265625,754.976563 Z" id="Path-2-Copy" fill="#919191"></path>
                <g id="Group-2" transform="translate(34.000000, 0.000000)">
                    <mask id="mask-2" fill="white">
                        <use xlink:href="#path-1"></use>
                    </mask>
                    <use id="Path-2-Copy-2" fill="#000000" xlink:href="#path-1"></use>
                    <g id="Group" opacity="0.290930707" mask="url(#mask-2)">
                        <g transform="translate(18.000000, 2.000000)">
                            <polygon id="col:-3,-row:7" fill="#393939" transform="translate(261.666667, 646.125000) rotate(-16.755152) translate(-261.666667, -646.125000) " points="261.666667 625.46655 291.023411 666.78345 232.309922 666.78345"></polygon>
                            <polygon id="col:-1,-row:7" fill="#393939" transform="translate(72.222222, 662.125000) rotate(-64.976206) translate(-72.222222, -662.125000) " points="72.2222222 641.583882 101.412232 682.666118 43.0322126 682.666118"></polygon>
                            <polygon id="col:-2,-row:6" fill="#393939" transform="translate(161.444444, 549.250000) rotate(-221.938778) translate(-161.444444, -549.250000) " points="161.444444 529.518704 189.483654 568.981296 133.405235 568.981296"></polygon>
                            <polygon id="col:-9,-row:5" fill="#393939" transform="translate(776.000000, 467.375000) rotate(-247.163224) translate(-776.000000, -467.375000) " points="776 448.311367 803.090426 486.438633 748.909574 486.438633"></polygon>
                            <polygon id="col:-4,-row:5" fill="#393939" transform="translate(347.888889, 459.375000) rotate(-137.215149) translate(-347.888889, -459.375000) " points="347.888889 439.701351 375.846179 479.048649 319.931599 479.048649"></polygon>
                            <polygon id="col:-4,-row:5" fill="#393939" transform="translate(557.888889, 719.375000) rotate(-137.215149) translate(-557.888889, -719.375000) " points="557.888889 699.701351 585.846179 739.048649 529.931599 739.048649"></polygon>
                            <polygon id="col:-4,-row:5" fill="#393939" transform="translate(766.888889, 269.375000) rotate(-137.215149) translate(-766.888889, -269.375000) " points="766.888889 249.701351 794.846179 289.048649 738.931599 289.048649"></polygon>
                            <polygon id="col:-9,-row:4" fill="#393939" transform="translate(761.000000, 43.500000) rotate(-243.572488) translate(-761.000000, -43.500000) " points="761 22.9208249 790.244091 64.0791751 731.755909 64.0791751"></polygon>
                            <polygon id="col:-4,-row:2" fill="#393939" transform="translate(358.888889, 222.750000) rotate(-141.138785) translate(-358.888889, -222.750000) " points="358.888889 204.217367 385.224736 241.282633 332.553042 241.282633"></polygon>
                            <rect id="col:-4,-row:8" fill="#393939" transform="translate(363.888889, 713.000000) rotate(-24.153236) translate(-363.888889, -713.000000) " x="322.030146" y="697.302971" width="83.7174854" height="31.394057"></rect>
                            <rect id="col:-6,-row:7" fill="#393939" transform="translate(532.333333, 647.125000) rotate(-173.434960) translate(-532.333333, -647.125000) " x="484.23096" y="629.08661" width="96.2047457" height="36.0767796"></rect>
                            <rect id="col:-7,-row:6" fill="#393939" transform="translate(611.555556, 566.250000) rotate(-180.542592) translate(-611.555556, -566.250000) " x="567.032641" y="549.553907" width="89.0458287" height="33.3921858"></rect>
                            <rect id="col:-8,-row:5" fill="#393939" transform="translate(713.777778, 474.375000) rotate(-280.571778) translate(-713.777778, -474.375000) " x="671.210754" y="458.412366" width="85.1340477" height="31.9252679"></rect>
                            <rect id="col:-2,-row:4" fill="#393939" transform="translate(110.444444, 451.500000) rotate(-41.240002) translate(-110.444444, -451.500000) " x="67.8719887" y="435.535329" width="85.1449116" height="31.9293418"></rect>
                            <rect id="col:-7,-row:3" fill="#393939" transform="translate(612.555556, 274.625000) rotate(-73.988022) translate(-612.555556, -274.625000) " x="570.296597" y="258.777891" width="84.5179169" height="31.6942189"></rect>
                            <circle id="col:-2,-row:8" fill="#393939" transform="translate(154.444444, 720.000000) rotate(-151.641000) translate(-154.444444, -720.000000) " cx="154.444444" cy="720" r="19.3272274"></circle>
                            <circle id="col:-9,-row:7" fill="#393939" transform="translate(764.000000, 694.125000) rotate(-11.624664) translate(-764.000000, -694.125000) " cx="764" cy="694.125" r="22.5729758"></circle>
                            <circle id="col:-5,-row:7" fill="#393939" transform="translate(445.111111, 643.125000) rotate(-63.502462) translate(-445.111111, -643.125000) " cx="445.111111" cy="643.125" r="22.6126247"></circle>
                            <circle id="col:-3,-row:5" fill="#393939" transform="translate(250.666667, 464.375000) rotate(-273.404654) translate(-250.666667, -464.375000) " cx="250.666667" cy="464.375" r="21.4554996"></circle>
                            <circle id="col:-8,-row:4" fill="#393939" transform="translate(706.777778, 371.500000) rotate(-127.516076) translate(-706.777778, -371.500000) " cx="706.777778" cy="371.5" r="22.0112854"></circle>
                            <circle id="col:-5,-row:4" fill="#393939" transform="translate(433.111111, 369.500000) rotate(-176.548745) translate(-433.111111, -369.500000) " cx="433.111111" cy="369.5" r="19.5170194"></circle>
                            <circle id="col:-3,-row:4" fill="#393939" transform="translate(246.666667, 378.500000) rotate(-337.423901) translate(-246.666667, -378.500000) " cx="246.666667" cy="378.5" r="18.2386305"></circle>
                            <circle id="col:-8,-row:2" fill="#393939" transform="translate(701.777778, 188.750000) rotate(-58.431645) translate(-701.777778, -188.750000) " cx="701.777778" cy="188.75" r="21.4429375"></circle>
                            <circle id="col:-7,-row:0" fill="#393939" transform="translate(620.555556, 26.000000) rotate(-84.519670) translate(-620.555556, -26.000000) " cx="620.555556" cy="26" r="23.4393447"></circle>
                            <g id="col:-3,-row:8" stroke-width="1" fill="none" transform="translate(245.666667, 712.000000) rotate(-102.663953) translate(-245.666667, -712.000000) translate(207.133038, 673.466372)">
                                <path d="M76.6912531,15.7909886 L61.2770718,0.376716878 C60.7747807,-0.125572293 59.9630168,-0.125572293 59.4607257,0.376716878 L0.376718347,59.4604938 C-0.125572782,59.9627829 -0.125572782,60.7745437 0.376718347,61.2768328 L15.7908997,76.690954 C16.0311324,76.93239 16.3586678,77.067257 16.6989975,77.067257 C17.0393272,77.067257 17.3656584,76.93239 17.6070953,76.690954 L76.6909521,17.6073277 C76.932389,17.3670959 77.0672565,17.0395618 77.0672565,16.6992334 C77.0675575,16.3587545 76.93269,16.0324246 76.6912531,15.7909886 Z M16.699148,73.9665207 L3.10131281,60.3687386 L60.3688235,3.10130072 L73.9666586,16.6990829 L16.699148,73.9665207 Z" id="Shape" fill="#393939" fill-rule="nonzero"></path>
                                <polygon id="Rectangle-path" fill="#393939" fill-rule="nonzero" points="51.3781713 11.779572 53.2773257 9.88041756 57.3064219 13.9095137 55.4072674 15.8086681"></polygon>
                                <polygon id="Rectangle-path" fill="#393939" fill-rule="nonzero" points="47.4260043 15.6390852 49.2325049 13.8325846 54.3422966 18.9423763 52.535796 20.7488769"></polygon>
                                <polygon id="Rectangle-path" fill="#393939" fill-rule="nonzero" points="43.4738373 19.683906 45.3729917 17.7847516 49.4020878 21.8138477 47.5029334 23.7130021"></polygon>
                                <polygon id="Rectangle-path" fill="#393939" fill-rule="nonzero" points="39.5216702 23.5434192 41.3281708 21.7369186 46.4379625 26.8467104 44.631462 28.6532109"></polygon>
                                <polygon id="Rectangle-path" fill="#393939" fill-rule="nonzero" points="35.5695032 27.5882401 37.4686576 25.6890857 41.4977538 29.7181818 39.5985993 31.6173362"></polygon>
                                <polygon id="Rectangle-path" fill="#393939" fill-rule="nonzero" points="31.6173362 31.4477533 33.4238368 29.6412527 38.5336285 34.7510444 36.7271279 36.557545"></polygon>
                                <polygon id="Rectangle-path" fill="#393939" fill-rule="nonzero" points="27.6651692 35.4932245 29.5642437 33.5934197 33.5934197 37.6218655 31.6943452 39.5216702"></polygon>
                                <polygon id="Rectangle-path" fill="#393939" fill-rule="nonzero" points="23.7130021 39.3520873 25.5195027 37.5455867 30.6292944 42.6553785 28.8227939 44.461879"></polygon>
                                <polygon id="Rectangle-path" fill="#393939" fill-rule="nonzero" points="19.7608351 43.3969082 21.6599895 41.4977538 25.6890857 45.5268499 23.7899312 47.4260043"></polygon>
                                <polygon id="Rectangle-path" fill="#393939" fill-rule="nonzero" points="15.8086681 46.2683796 17.6151687 44.461879 22.7249604 49.5716707 20.9184598 51.3781713"></polygon>
                                <polygon id="Rectangle-path" fill="#393939" fill-rule="nonzero" points="12.8445428 50.3132005 14.7436973 48.4140461 18.7727934 52.4431422 16.8736389 54.3422966"></polygon>
                                <polygon id="Rectangle-path" fill="#393939" fill-rule="nonzero" points="8.89237581 54.1727137 10.6988764 52.3662131 15.8086681 57.4760048 14.0021675 59.2825054"></polygon>
                            </g>
                            <g id="col:-8,-row:7" stroke-width="1" fill="none" transform="translate(700.777778, 655.125000) rotate(-317.805276) translate(-700.777778, -655.125000) translate(660.826561, 615.173784)">
                                <path d="M79.5125965,16.3719128 L63.5313531,0.390575664 C63.0105836,-0.130191888 62.1689562,-0.130191888 61.6481867,0.390575664 L0.390577187,61.6479462 C-0.130192396,62.1687138 -0.130192396,63.0103378 0.390577187,63.5311054 L16.3718206,79.5122864 C16.6208911,79.7626044 16.9604759,79.9024329 17.3133258,79.9024329 C17.6661756,79.9024329 18.004512,79.7626044 18.254831,79.5122864 L79.5122844,18.2550719 C79.7626034,18.0060024 79.9024324,17.6664189 79.9024324,17.3135704 C79.9027445,16.9605658 79.7629155,16.6222308 79.5125965,16.3719128 Z M17.3134818,76.6876258 L3.21540494,62.5896038 L62.5896919,3.2153924 L76.6877688,17.3134143 L17.3134818,76.6876258 Z" id="Shape" fill="#393939" fill-rule="nonzero"></path>
                                <polygon id="Rectangle-path" fill="#393939" fill-rule="nonzero" points="53.2682886 12.2129228 55.2373098 10.2439017 59.4146296 14.4212215 57.4456085 16.3902427"></polygon>
                                <polygon id="Rectangle-path" fill="#393939" fill-rule="nonzero" points="49.170728 16.214421 51.0436867 14.3414623 56.3414591 19.6392348 54.4685004 21.5121935"></polygon>
                                <polygon id="Rectangle-path" fill="#393939" fill-rule="nonzero" points="45.0731673 20.4080441 47.0421884 18.439023 51.2195083 22.6163428 49.2504871 24.585364"></polygon>
                                <polygon id="Rectangle-path" fill="#393939" fill-rule="nonzero" points="40.9756066 24.4095424 42.8485654 22.5365836 48.1463378 27.8343561 46.2733791 29.7073148"></polygon>
                                <polygon id="Rectangle-path" fill="#393939" fill-rule="nonzero" points="36.878046 28.6031655 38.8470671 26.6341443 43.024387 30.8114642 41.0553658 32.7804853"></polygon>
                                <polygon id="Rectangle-path" fill="#393939" fill-rule="nonzero" points="32.7804853 32.6046637 34.653444 30.731705 39.9512165 36.0294774 38.0782577 37.9024361"></polygon>
                                <polygon id="Rectangle-path" fill="#393939" fill-rule="nonzero" points="28.6829246 36.7989611 30.651863 34.8292656 34.8292656 39.0059112 32.8603273 40.9756066"></polygon>
                                <polygon id="Rectangle-path" fill="#393939" fill-rule="nonzero" points="24.585364 40.799785 26.4583227 38.9268263 31.7560951 44.2245987 29.8831364 46.0975575"></polygon>
                                <polygon id="Rectangle-path" fill="#393939" fill-rule="nonzero" points="20.4878033 44.9934081 22.4568245 43.024387 26.6341443 47.2017068 24.6651232 49.170728"></polygon>
                                <polygon id="Rectangle-path" fill="#393939" fill-rule="nonzero" points="16.3902427 47.9705162 18.2632014 46.0975575 23.5609738 51.3953299 21.6880151 53.2682886"></polygon>
                                <polygon id="Rectangle-path" fill="#393939" fill-rule="nonzero" points="13.3170722 52.1641393 15.2860933 50.1951181 19.4634132 54.372438 17.494392 56.3414591"></polygon>
                                <polygon id="Rectangle-path" fill="#393939" fill-rule="nonzero" points="9.21951149 56.1656375 11.0924702 54.2926788 16.3902427 59.5904512 14.5172839 61.46341"></polygon>
                            </g>
                            <g id="col:-4,-row:7" stroke-width="1" fill="none" transform="translate(347.888889, 654.125000) rotate(-117.794744) translate(-347.888889, -654.125000) translate(305.634358, 611.870469)">
                                <path d="M84.0967502,17.3158055 L67.1941374,0.413093591 C66.6433438,-0.137697864 65.753194,-0.137697864 65.2024004,0.413093591 L0.413095202,65.2021461 C-0.137698401,65.7529375 -0.137698401,66.6430839 0.413095202,67.1938753 L17.315708,84.0964222 C17.5791382,84.3611718 17.9383012,84.5090619 18.311494,84.5090619 C18.6846868,84.5090619 19.0425293,84.3611718 19.30728,84.0964222 L84.0964201,19.3075348 C84.3611707,19.0441056 84.5090613,18.684944 84.5090613,18.3117527 C84.5093915,17.9383963 84.3615008,17.5805551 84.0967502,17.3158055 Z M18.311659,81.1089109 L3.40078325,66.1980932 L66.1981863,3.40076998 L81.1090621,18.3115876 L18.311659,81.1089109 Z" id="Shape" fill="#393939" fill-rule="nonzero"></path>
                                <polygon id="Rectangle-path" fill="#393939" fill-rule="nonzero" points="56.3393746 12.9170366 58.4219161 10.8344951 62.8400717 15.2526507 60.7575302 17.3351922"></polygon>
                                <polygon id="Rectangle-path" fill="#393939" fill-rule="nonzero" points="52.0055766 17.1492339 53.9865173 15.1682932 59.5897231 20.771499 57.6087824 22.7524397"></polygon>
                                <polygon id="Rectangle-path" fill="#393939" fill-rule="nonzero" points="47.6717785 21.5846327 49.75432 19.5020912 54.1724756 23.9202468 52.0899341 26.0027883"></polygon>
                                <polygon id="Rectangle-path" fill="#393939" fill-rule="nonzero" points="43.3379805 25.81683 45.3189212 23.8358893 50.922127 29.4390951 48.9411863 31.4200358"></polygon>
                                <polygon id="Rectangle-path" fill="#393939" fill-rule="nonzero" points="39.0041824 30.2522288 41.0867239 28.1696873 45.5048795 32.5878429 43.422338 34.6703844"></polygon>
                                <polygon id="Rectangle-path" fill="#393939" fill-rule="nonzero" points="34.6703844 34.4844261 36.6513251 32.5034853 42.254531 38.1066912 40.2735902 40.0876319"></polygon>
                                <polygon id="Rectangle-path" fill="#393939" fill-rule="nonzero" points="30.3365863 38.920538 32.4190402 36.8372834 36.8372834 41.2547258 34.7548295 43.3379805"></polygon>
                                <polygon id="Rectangle-path" fill="#393939" fill-rule="nonzero" points="26.0027883 43.1520222 27.983729 41.1710814 33.5869349 46.7742873 31.6059941 48.755228"></polygon>
                                <polygon id="Rectangle-path" fill="#393939" fill-rule="nonzero" points="21.6689902 47.587421 23.7515317 45.5048795 28.1696873 49.9230351 26.0871458 52.0055766"></polygon>
                                <polygon id="Rectangle-path" fill="#393939" fill-rule="nonzero" points="17.3351922 50.7361688 19.3161329 48.755228 24.9193388 54.3584339 22.938398 56.3393746"></polygon>
                                <polygon id="Rectangle-path" fill="#393939" fill-rule="nonzero" points="14.0848437 55.1715675 16.1673851 53.0890261 20.5855407 57.5071817 18.5029992 59.5897231"></polygon>
                                <polygon id="Rectangle-path" fill="#393939" fill-rule="nonzero" points="9.7510456 59.4037649 11.7319863 57.4228241 17.3351922 63.02603 15.3542514 65.0069707"></polygon>
                            </g>
                            <g id="col:-2,-row:7" stroke-width="1" fill="none" transform="translate(168.384725, 651.786312) rotate(-145.304454) translate(-168.384725, -651.786312) translate(125.884725, 609.286312)">
                                <path d="M84.1025955,17.3154536 L67.1990683,0.411827172 C66.6482449,-0.138994081 65.7580469,-0.138994081 65.2072235,0.411827172 L0.414413185,65.2043848 C-0.136410216,65.7552061 -0.136410216,66.6454005 0.414413185,67.1962218 L17.3179404,84.0996831 C17.5813849,84.3644471 17.9405673,84.5123451 18.3137803,84.5123451 C18.6869932,84.5123451 19.0448551,84.3644471 19.3096201,84.0996831 L84.1022654,19.3072906 C84.3670303,19.0438471 84.514929,18.6846661 84.514929,18.3114546 C84.5152591,17.938078 84.3673605,17.5802175 84.1025955,17.3154536 Z M18.3139453,81.1120102 L3.40226287,66.2003858 L66.2030633,3.3996652 L81.1147458,18.3112895 L18.3139453,81.1120102 Z" id="Shape" fill="#393939" fill-rule="nonzero"></path>
                                <polygon id="Rectangle-path" fill="#393939" fill-rule="nonzero" points="56.3437182 12.9164466 58.4263724 10.8337925 62.844767 15.2521871 60.7621129 17.3348413"></polygon>
                                <polygon id="Rectangle-path" fill="#393939" fill-rule="nonzero" points="52.0096857 17.1488729 53.9907336 15.167825 59.5942426 20.771334 57.6131947 22.7523819"></polygon>
                                <polygon id="Rectangle-path" fill="#393939" fill-rule="nonzero" points="47.6756532 21.5845117 49.7583074 19.5018575 54.176702 23.9202521 52.0940478 26.0029063"></polygon>
                                <polygon id="Rectangle-path" fill="#393939" fill-rule="nonzero" points="43.3416207 25.8169379 45.3226686 23.83589 50.9261776 29.439399 48.9451297 31.4204469"></polygon>
                                <polygon id="Rectangle-path" fill="#393939" fill-rule="nonzero" points="39.0075882 30.2525767 41.0902423 28.1699225 45.508637 32.5883172 43.4259828 34.6709713"></polygon>
                                <polygon id="Rectangle-path" fill="#393939" fill-rule="nonzero" points="34.6735557 34.4850029 36.6546036 32.503955 42.2581126 38.107464 40.2770647 40.0885119"></polygon>
                                <polygon id="Rectangle-path" fill="#393939" fill-rule="nonzero" points="30.3395232 38.9213549 32.4220897 36.8379875 36.8405719 41.255669 34.7580054 43.3390363"></polygon>
                                <polygon id="Rectangle-path" fill="#393939" fill-rule="nonzero" points="26.0054907 43.153068 27.9865386 41.1720201 33.5900476 46.775529 31.6089997 48.7565769"></polygon>
                                <polygon id="Rectangle-path" fill="#393939" fill-rule="nonzero" points="21.6714582 47.5887067 23.7541123 45.5060526 28.1725069 49.9244472 26.0898528 52.0071013"></polygon>
                                <polygon id="Rectangle-path" fill="#393939" fill-rule="nonzero" points="17.3374257 50.7376248 19.3184736 48.7565769 24.9219826 54.3600859 22.9409346 56.3411338"></polygon>
                                <polygon id="Rectangle-path" fill="#393939" fill-rule="nonzero" points="14.0869013 55.1732636 16.1695554 53.0906094 20.58795 57.5090041 18.5052959 59.5916582"></polygon>
                                <polygon id="Rectangle-path" fill="#393939" fill-rule="nonzero" points="9.75286878 59.4056899 11.7339167 57.424642 17.3374257 63.0281509 15.3563778 65.0091988"></polygon>
                            </g>
                            <g id="col:-9,-row:6" stroke-width="1" fill="none" transform="translate(776.000000, 568.250000) rotate(-234.140744) translate(-776.000000, -568.250000) translate(739.625399, 531.875399)">
                                <path d="M72.3942658,14.9062244 L57.8437363,0.355609547 C57.3695884,-0.118536516 56.6033074,-0.118536516 56.1291595,0.355609547 L0.355610934,56.1289406 C-0.118536978,56.6030867 -0.118536978,57.3693647 0.355610934,57.8435107 L14.9061404,72.3939835 C15.132913,72.6218919 15.4420967,72.7492023 15.7633578,72.7492023 C16.0846189,72.7492023 16.3926659,72.6218919 16.6205752,72.3939835 L72.3939816,16.6207945 C72.6218909,16.3940228 72.7492018,16.0848404 72.7492018,15.7635805 C72.749486,15.4421785 72.6221751,15.1341328 72.3942658,14.9062244 Z M15.7634999,69.8221993 L2.92754721,56.9862967 L56.9863769,2.92753579 L69.8223295,15.7634384 L15.7634999,69.8221993 Z" id="Shape" fill="#393939" fill-rule="nonzero"></path>
                                <polygon id="Rectangle-path" fill="#393939" fill-rule="nonzero" points="48.4994682 11.1195662 50.2922136 9.32682081 54.0955607 13.1301679 52.3028153 14.9229133"></polygon>
                                <polygon id="Rectangle-path" fill="#393939" fill-rule="nonzero" points="44.7687399 14.762832 46.4740228 13.0575491 51.2975144 17.8810408 49.5922315 19.5863237"></polygon>
                                <polygon id="Rectangle-path" fill="#393939" fill-rule="nonzero" points="41.0380116 18.5810228 42.8307569 16.7882775 46.634104 20.5916246 44.8413587 22.3843699"></polygon>
                                <polygon id="Rectangle-path" fill="#393939" fill-rule="nonzero" points="37.3072832 22.2242887 39.0125661 20.5190058 43.8360578 25.3424974 42.1307749 27.0477803"></polygon>
                                <polygon id="Rectangle-path" fill="#393939" fill-rule="nonzero" points="33.5765549 26.0424795 35.3693003 24.2497341 39.1726474 28.0530812 37.379902 29.8458266"></polygon>
                                <polygon id="Rectangle-path" fill="#393939" fill-rule="nonzero" points="29.8458266 29.6857453 31.5511095 27.9804624 36.3746012 32.8039541 34.6693182 34.509237"></polygon>
                                <polygon id="Rectangle-path" fill="#393939" fill-rule="nonzero" points="26.1150983 33.5045501 27.9077683 31.7111907 31.7111907 35.5139239 29.9185208 37.3072832"></polygon>
                                <polygon id="Rectangle-path" fill="#393939" fill-rule="nonzero" points="22.3843699 37.147202 24.0896528 35.4419191 28.9131445 40.2654107 27.2078616 41.9706936"></polygon>
                                <polygon id="Rectangle-path" fill="#393939" fill-rule="nonzero" points="18.6536416 40.9653928 20.446387 39.1726474 24.2497341 42.9759945 22.4569887 44.7687399"></polygon>
                                <polygon id="Rectangle-path" fill="#393939" fill-rule="nonzero" points="14.9229133 43.6759765 16.6281962 41.9706936 21.4516879 46.7941853 19.746405 48.4994682"></polygon>
                                <polygon id="Rectangle-path" fill="#393939" fill-rule="nonzero" points="12.1248671 47.4941673 13.9176124 45.701422 17.7209595 49.5047691 15.9282141 51.2975144"></polygon>
                                <polygon id="Rectangle-path" fill="#393939" fill-rule="nonzero" points="8.39413873 51.1374332 10.0994216 49.4321503 14.9229133 54.2556419 13.2176304 55.9609248"></polygon>
                            </g>
                            <g id="col:-5,-row:6" stroke-width="1" fill="none" transform="translate(433.111111, 559.250000) rotate(-344.353359) translate(-433.111111, -559.250000) translate(396.372068, 522.510957)">
                                <path d="M73.1195927,15.0555716 L58.4232797,0.359172442 C57.9443812,-0.119724147 57.1704228,-0.119724147 56.6915243,0.359172442 L0.359173843,56.6913032 C-0.119724614,57.1701998 -0.119724614,57.9441553 0.359173843,58.4230519 L15.0554868,73.1193076 C15.2845315,73.3494994 15.5968129,73.4780853 15.9212928,73.4780853 C16.2457727,73.4780853 16.556906,73.3494994 16.7870987,73.1193076 L73.1193057,16.7873203 C73.3494984,16.5582765 73.4780849,16.2459963 73.4780849,15.9215177 C73.4783719,15.5968956 73.3497854,15.2857635 73.1195927,15.0555716 Z M15.9214363,70.5217564 L2.95687866,57.5572493 L57.5573303,2.95686713 L70.5218879,15.9213742 L15.9214363,70.5217564 Z" id="Shape" fill="#393939" fill-rule="nonzero"></path>
                                <polygon id="Rectangle-path" fill="#393939" fill-rule="nonzero" points="48.9853902 11.2309745 50.7960974 9.42026735 54.6375506 13.2617206 52.8268435 15.0724278"></polygon>
                                <polygon id="Rectangle-path" fill="#393939" fill-rule="nonzero" points="45.2172833 14.9107426 46.9396516 13.1883743 51.8114704 18.0601931 50.0891021 19.7825614"></polygon>
                                <polygon id="Rectangle-path" fill="#393939" fill-rule="nonzero" points="41.4491763 18.7671884 43.2598835 16.9564812 47.1013368 20.7979345 45.2906296 22.6086416"></polygon>
                                <polygon id="Rectangle-path" fill="#393939" fill-rule="nonzero" points="37.6810694 22.4469565 39.4034377 20.7245882 44.2752566 25.596407 42.5528882 27.3187753"></polygon>
                                <polygon id="Rectangle-path" fill="#393939" fill-rule="nonzero" points="33.9129625 26.3034022 35.7236696 24.4926951 39.5651229 28.3341484 37.7544158 30.1448555"></polygon>
                                <polygon id="Rectangle-path" fill="#393939" fill-rule="nonzero" points="30.1448555 29.9831704 31.8672239 28.2608021 36.7390427 33.1326209 35.0166743 34.8549892"></polygon>
                                <polygon id="Rectangle-path" fill="#393939" fill-rule="nonzero" points="26.3767486 33.8402362 28.1873796 32.028909 32.028909 35.8697422 30.218278 37.6810694"></polygon>
                                <polygon id="Rectangle-path" fill="#393939" fill-rule="nonzero" points="22.6086416 37.5193843 24.33101 35.7970159 29.2028288 40.6688347 27.4804605 42.3912031"></polygon>
                                <polygon id="Rectangle-path" fill="#393939" fill-rule="nonzero" points="18.8405347 41.37583 20.6512418 39.5651229 24.4926951 43.4065762 22.681988 45.2172833"></polygon>
                                <polygon id="Rectangle-path" fill="#393939" fill-rule="nonzero" points="15.0724278 44.1135714 16.7947961 42.3912031 21.6666149 47.2630219 19.9442466 48.9853902"></polygon>
                                <polygon id="Rectangle-path" fill="#393939" fill-rule="nonzero" points="12.2463476 47.9700171 14.0570547 46.15931 17.898508 50.0007633 16.0878009 51.8114704"></polygon>
                                <polygon id="Rectangle-path" fill="#393939" fill-rule="nonzero" points="8.47824062 51.6497853 10.200609 49.927417 15.0724278 54.7992358 13.3500594 56.5216041"></polygon>
                            </g>
                            <g id="col:-3,-row:6" stroke-width="1" fill="none" transform="translate(253.666667, 549.250000) rotate(-42.865753) translate(-253.666667, -549.250000) translate(211.884913, 507.468247)">
                                <path d="M83.1558079,17.1220623 L66.4423152,0.408471567 C65.8976843,-0.136157189 65.0174942,-0.136157189 64.4728633,0.408471567 L0.40847316,64.4726119 C-0.13615772,65.0172407 -0.13615772,65.8974273 0.40847316,66.4420561 L17.1219659,83.1554836 C17.3824486,83.417271 17.737593,83.5635064 18.1066102,83.5635064 C18.4756274,83.5635064 18.8294661,83.417271 19.0912545,83.1554836 L83.1554815,19.0915065 C83.4172699,18.8310248 83.5635058,18.4758818 83.5635058,18.106866 C83.5638322,17.737687 83.4175963,17.3838497 83.1558079,17.1220623 Z M18.1067734,80.201399 L3.36273254,65.4574156 L65.4575076,3.36271943 L80.2015485,18.1067028 L18.1067734,80.201399 Z" id="Shape" fill="#393939" fill-rule="nonzero"></path>
                                <polygon id="Rectangle-path" fill="#393939" fill-rule="nonzero" points="55.7090042 12.7725104 57.7682446 10.71327 62.1369663 15.0819918 60.077726 17.1412321"></polygon>
                                <polygon id="Rectangle-path" fill="#393939" fill-rule="nonzero" points="51.4236962 16.9573544 53.3824726 14.9985781 58.9229853 20.5390907 56.9642089 22.4978671"></polygon>
                                <polygon id="Rectangle-path" fill="#393939" fill-rule="nonzero" points="47.1383882 21.3431264 49.1976285 19.2838861 53.5663502 23.6526078 51.5071099 25.7118481"></polygon>
                                <polygon id="Rectangle-path" fill="#393939" fill-rule="nonzero" points="42.8530802 25.5279705 44.8118566 23.5691941 50.3523692 29.1097068 48.3935928 31.0684831"></polygon>
                                <polygon id="Rectangle-path" fill="#393939" fill-rule="nonzero" points="38.5677722 29.9137424 40.6270125 27.8545021 44.9957342 32.2232238 42.9364939 34.2824641"></polygon>
                                <polygon id="Rectangle-path" fill="#393939" fill-rule="nonzero" points="34.2824641 34.0985865 36.2412405 32.1398101 41.7817532 37.6803228 39.8229768 39.6390992"></polygon>
                                <polygon id="Rectangle-path" fill="#393939" fill-rule="nonzero" points="29.9971561 38.4850637 32.0563099 36.4251182 36.4251182 40.7931347 34.3659644 42.8530802"></polygon>
                                <polygon id="Rectangle-path" fill="#393939" fill-rule="nonzero" points="25.7118481 42.6692026 27.6706245 40.7104262 33.2111371 46.2509388 31.2523608 48.2097152"></polygon>
                                <polygon id="Rectangle-path" fill="#393939" fill-rule="nonzero" points="21.4265401 47.0549745 23.4857804 44.9957342 27.8545021 49.3644559 25.7952618 51.4236962"></polygon>
                                <polygon id="Rectangle-path" fill="#393939" fill-rule="nonzero" points="17.1412321 50.1684916 19.1000084 48.2097152 24.6405211 53.7502279 22.6817447 55.7090042"></polygon>
                                <polygon id="Rectangle-path" fill="#393939" fill-rule="nonzero" points="13.9272511 54.5542635 15.9864914 52.4950232 20.3552131 56.8637449 18.2959728 58.9229853"></polygon>
                                <polygon id="Rectangle-path" fill="#393939" fill-rule="nonzero" points="9.64194304 58.7391076 11.6007194 56.7803312 17.1412321 62.3208439 15.1824557 64.2796203"></polygon>
                            </g>
                            <g id="col:-6,-row:5" stroke-width="1" fill="none" transform="translate(527.333333, 474.375000) rotate(-229.021176) translate(-527.333333, -474.375000) translate(486.082442, 433.124109)">
                                <path d="M82.0992645,16.9045165 L65.5981265,0.403281696 C65.0604155,-0.134427232 64.1914087,-0.134427232 63.6536977,0.403281696 L0.403283268,63.6534495 C-0.134427756,64.1911584 -0.134427756,65.0601618 0.403283268,65.5978707 L16.9044213,82.0989443 C17.1615944,82.3574056 17.5122265,82.5017829 17.8765551,82.5017829 C18.2408837,82.5017829 18.5902267,82.3574056 18.8486889,82.0989443 L82.0989422,18.8489377 C82.3574045,18.5917655 82.5017824,18.2411349 82.5017824,17.8768076 C82.5021046,17.5123193 82.3577267,17.1629777 82.0992645,16.9045165 Z M17.8767162,79.1823931 L3.32000705,64.6257407 L64.6258315,3.3199941 L79.1825407,17.8766465 L17.8767162,79.1823931 Z" id="Shape" fill="#393939" fill-rule="nonzero"></path>
                                <polygon id="Rectangle-path" fill="#393939" fill-rule="nonzero" points="55.0011886 12.6102281 57.0342651 10.5771517 61.3474796 14.8903662 59.3144031 16.9234426"></polygon>
                                <polygon id="Rectangle-path" fill="#393939" fill-rule="nonzero" points="50.7703279 16.7419013 52.7042169 14.8080123 58.1743341 20.2781295 56.2404451 22.2120185"></polygon>
                                <polygon id="Rectangle-path" fill="#393939" fill-rule="nonzero" points="46.5394673 21.0719494 48.5725437 19.038873 52.8857583 23.3520875 50.8526818 25.385164"></polygon>
                                <polygon id="Rectangle-path" fill="#393939" fill-rule="nonzero" points="42.3086066 25.2036226 44.2424956 23.2697336 49.7126128 28.7398508 47.7787238 30.6737398"></polygon>
                                <polygon id="Rectangle-path" fill="#393939" fill-rule="nonzero" points="38.077746 29.5336708 40.1108224 27.5005943 44.424037 31.8138088 42.3909605 33.8468853"></polygon>
                                <polygon id="Rectangle-path" fill="#393939" fill-rule="nonzero" points="33.8468853 33.6653439 35.7807743 31.731455 41.2508915 37.2015722 39.3170025 39.1354611"></polygon>
                                <polygon id="Rectangle-path" fill="#393939" fill-rule="nonzero" points="29.6160246 37.9960883 31.6490156 35.9623156 35.9623156 40.2748339 33.9293247 42.3086066"></polygon>
                                <polygon id="Rectangle-path" fill="#393939" fill-rule="nonzero" points="25.385164 42.1270653 27.3190529 40.1931763 32.7891701 45.6632935 30.8552812 47.5971824"></polygon>
                                <polygon id="Rectangle-path" fill="#393939" fill-rule="nonzero" points="21.1543033 46.4571134 23.1873798 44.424037 27.5005943 48.7372515 25.4675178 50.7703279"></polygon>
                                <polygon id="Rectangle-path" fill="#393939" fill-rule="nonzero" points="16.9234426 49.5310714 18.8573316 47.5971824 24.3274488 53.0672996 22.3935598 55.0011886"></polygon>
                                <polygon id="Rectangle-path" fill="#393939" fill-rule="nonzero" points="13.7502972 53.8611196 15.7833736 51.8280431 20.0965881 56.1412576 18.0635117 58.1743341"></polygon>
                                <polygon id="Rectangle-path" fill="#393939" fill-rule="nonzero" points="9.51943649 57.9927927 11.4533255 56.0589038 16.9234426 61.529021 14.9895537 63.4629099"></polygon>
                            </g>
                            <g id="col:-6,-row:4" stroke-width="1" fill="none" transform="translate(529.333333, 361.500000) rotate(-193.748704) translate(-529.333333, -361.500000) translate(486.830597, 318.997264)">
                                <path d="M84.5907393,17.4175196 L67.5888396,0.415520126 C67.0348106,-0.138506709 66.139432,-0.138506709 65.585403,0.415520126 L0.415521747,65.5851472 C-0.138507249,66.1391741 -0.138507249,67.0345492 0.415521747,67.588576 L17.4174215,84.5904094 C17.6823991,84.8567142 18.0436718,85.0054729 18.4190567,85.0054729 C18.7944417,85.0054729 19.1543862,84.8567142 19.420692,84.5904094 L84.5904072,19.4209483 C84.856713,19.1559718 85.0054724,18.7947004 85.0054724,18.419317 C85.0058044,18.0437674 84.8570451,17.6838243 84.5907393,17.4175196 Z M18.4192228,81.5853492 L3.42075964,66.5869446 L66.5870383,3.4207463 L81.5855014,18.4191509 L18.4192228,81.5853492 Z" id="Shape" fill="#393939" fill-rule="nonzero"></path>
                                <polygon id="Rectangle-path" fill="#393939" fill-rule="nonzero" points="56.6703153 12.992912 58.7650897 10.8981376 63.2091978 15.3422457 61.1144234 17.4370201"></polygon>
                                <polygon id="Rectangle-path" fill="#393939" fill-rule="nonzero" points="52.3110603 17.2499695 54.3036372 15.2573926 59.9397566 20.893512 57.9471797 22.8860889"></polygon>
                                <polygon id="Rectangle-path" fill="#393939" fill-rule="nonzero" points="47.9518053 21.711422 50.0465797 19.6166476 54.4906878 24.0607557 52.3959133 26.1555301"></polygon>
                                <polygon id="Rectangle-path" fill="#393939" fill-rule="nonzero" points="43.5925502 25.9684795 45.5851271 23.9759026 51.2212465 29.612022 49.2286696 31.6045989"></polygon>
                                <polygon id="Rectangle-path" fill="#393939" fill-rule="nonzero" points="39.2332952 30.4299321 41.3280696 28.3351576 45.7721777 32.7792657 43.6774033 34.8740402"></polygon>
                                <polygon id="Rectangle-path" fill="#393939" fill-rule="nonzero" points="34.8740402 34.6869896 36.8666171 32.6944127 42.5027365 38.3305321 40.5101596 40.323109"></polygon>
                                <polygon id="Rectangle-path" fill="#393939" fill-rule="nonzero" points="30.5147852 39.1491595 32.6094715 37.0536677 37.0536677 41.4970584 34.9589813 43.5925502"></polygon>
                                <polygon id="Rectangle-path" fill="#393939" fill-rule="nonzero" points="26.1555301 43.4054996 28.148107 41.4129227 33.7842264 47.0490421 31.7916495 49.041619"></polygon>
                                <polygon id="Rectangle-path" fill="#393939" fill-rule="nonzero" points="21.7962751 47.8669522 23.8910496 45.7721777 28.3351576 50.2162858 26.2403832 52.3110603"></polygon>
                                <polygon id="Rectangle-path" fill="#393939" fill-rule="nonzero" points="17.4370201 51.0341959 19.429597 49.041619 25.0657164 54.6777384 23.0731395 56.6703153"></polygon>
                                <polygon id="Rectangle-path" fill="#393939" fill-rule="nonzero" points="14.1675788 55.4956485 16.2623533 53.400874 20.7064614 57.8449821 18.6116869 59.9397566"></polygon>
                                <polygon id="Rectangle-path" fill="#393939" fill-rule="nonzero" points="9.8083238 59.752706 11.8009007 57.7601291 17.4370201 63.3962484 15.4444432 65.3888253"></polygon>
                            </g>
                            <g id="col:-8,-row:3" stroke-width="1" fill="none" transform="translate(696.777778, 270.625000) rotate(-83.277136) translate(-696.777778, -270.625000) translate(659.062048, 232.909270)">
                                <path d="M75.0634368,15.4558157 L59.9764304,0.368720843 C59.4848007,-0.122906948 58.6902669,-0.122906948 58.1986372,0.368720843 L0.368722281,58.1984103 C-0.122907427,58.6900381 -0.122907427,59.4845687 0.368722281,59.9761965 L15.4557287,75.063144 C15.6908623,75.2994554 16.0114456,75.4314597 16.3445516,75.4314597 C16.6776576,75.4314597 16.9970622,75.2994554 17.2333745,75.063144 L75.0631421,17.2336019 C75.2994544,16.9984692 75.4314592,16.6778872 75.4314592,16.3447825 C75.4317539,16.0115304 75.299749,15.6921271 75.0634368,15.4558157 Z M16.3446989,72.3965384 L3.03548565,59.087377 L59.0874601,3.03547381 L72.3966734,16.3446352 L16.3446989,72.3965384 Z" id="Shape" fill="#393939" fill-rule="nonzero"></path>
                                <polygon id="Rectangle-path" fill="#393939" fill-rule="nonzero" points="50.2876398 11.5295437 52.1464836 9.67069996 56.0900598 13.6142762 54.231216 15.4731199"></polygon>
                                <polygon id="Rectangle-path" fill="#393939" fill-rule="nonzero" points="46.4193598 15.3071365 48.1875164 13.5389799 53.1888498 18.5403134 51.4206933 20.3084699"></polygon>
                                <polygon id="Rectangle-path" fill="#393939" fill-rule="nonzero" points="42.5510798 19.2661037 44.4099236 17.4072599 48.3534998 21.3508361 46.4946561 23.2096799"></polygon>
                                <polygon id="Rectangle-path" fill="#393939" fill-rule="nonzero" points="38.6827999 23.0436965 40.4509564 21.2755399 45.4522898 26.2768733 43.6841333 28.0450299"></polygon>
                                <polygon id="Rectangle-path" fill="#393939" fill-rule="nonzero" points="34.8145199 27.0026637 36.6733636 25.1438199 40.6169398 29.0873961 38.7580961 30.9462399"></polygon>
                                <polygon id="Rectangle-path" fill="#393939" fill-rule="nonzero" points="30.9462399 30.7802564 32.7143964 29.0120999 37.7157299 34.0134333 35.9475733 35.7815899"></polygon>
                                <polygon id="Rectangle-path" fill="#393939" fill-rule="nonzero" points="27.0779599 34.7398602 28.9367255 32.8803799 32.8803799 36.8233195 31.0216143 38.6827999"></polygon>
                                <polygon id="Rectangle-path" fill="#393939" fill-rule="nonzero" points="23.2096799 38.5168164 24.9778365 36.7486599 29.9791699 41.7499933 28.2110133 43.5181498"></polygon>
                                <polygon id="Rectangle-path" fill="#393939" fill-rule="nonzero" points="19.3413999 42.4757836 21.2002437 40.6169398 25.1438199 44.5605161 23.2849761 46.4193598"></polygon>
                                <polygon id="Rectangle-path" fill="#393939" fill-rule="nonzero" points="15.4731199 45.2863064 17.2412765 43.5181498 22.2426099 48.5194833 20.4744534 50.2876398"></polygon>
                                <polygon id="Rectangle-path" fill="#393939" fill-rule="nonzero" points="12.57191 49.2452736 14.4307537 47.3864298 18.3743299 51.330006 16.5154862 53.1888498"></polygon>
                                <polygon id="Rectangle-path" fill="#393939" fill-rule="nonzero" points="8.70362997 53.0228664 10.4717865 51.2547098 15.4731199 56.2560432 13.7049634 58.0241998"></polygon>
                            </g>
                            <g id="col:-5,-row:3" stroke-width="1" fill="none" transform="translate(442.111111, 282.625000) rotate(-193.310981) translate(-442.111111, -282.625000) translate(400.910138, 241.424027)">
                                <path d="M81.9999155,16.8840602 L65.5187456,0.402793681 C64.9816853,-0.13426456 64.1137301,-0.13426456 63.5766698,0.402793681 L0.402795252,63.5764219 C-0.134265084,64.1134801 -0.134265084,64.9814319 0.402795252,65.5184901 L16.8839651,81.9995957 C17.140827,82.2577441 17.4910348,82.4019468 17.8549225,82.4019468 C18.2188103,82.4019468 18.5677305,82.2577441 18.82588,81.9995957 L81.9995936,18.8261284 C82.257743,18.5692675 82.4019462,18.2190611 82.4019462,17.8551748 C82.4022681,17.4911275 82.2580649,17.1422086 81.9999155,16.8840602 Z M17.8550835,79.0865738 L3.31598948,64.5475365 L64.5476273,3.31597655 L79.0867212,17.8550138 L17.8550835,79.0865738 Z" id="Shape" fill="#393939" fill-rule="nonzero"></path>
                                <polygon id="Rectangle-path" fill="#393939" fill-rule="nonzero" points="54.9346312 12.5949684 56.9652474 10.5643522 61.2732425 14.8723472 59.2426263 16.9029634"></polygon>
                                <polygon id="Rectangle-path" fill="#393939" fill-rule="nonzero" points="50.7088903 16.7216418 52.6404391 14.790093 58.1039368 20.2535908 56.1723881 22.1851395"></polygon>
                                <polygon id="Rectangle-path" fill="#393939" fill-rule="nonzero" points="46.4831495 21.0464501 48.5137657 19.0158339 52.8217608 23.3238289 50.7911445 25.3544452"></polygon>
                                <polygon id="Rectangle-path" fill="#393939" fill-rule="nonzero" points="42.2574086 25.1731235 44.1889574 23.2415747 49.6524551 28.7050725 47.7209064 30.6366212"></polygon>
                                <polygon id="Rectangle-path" fill="#393939" fill-rule="nonzero" points="38.0316677 29.4979318 40.062284 27.4673156 44.370279 31.7753107 42.3396628 33.8059269"></polygon>
                                <polygon id="Rectangle-path" fill="#393939" fill-rule="nonzero" points="33.8059269 33.6246052 35.7374756 31.6930565 41.2009734 37.1565542 39.2694246 39.088103"></polygon>
                                <polygon id="Rectangle-path" fill="#393939" fill-rule="nonzero" points="29.580186 37.9501089 31.6107168 35.9187973 35.9187973 40.226097 33.8882665 42.2574086"></polygon>
                                <polygon id="Rectangle-path" fill="#393939" fill-rule="nonzero" points="25.3544452 42.0760869 27.2859939 40.1445382 32.7494917 45.6080359 30.8179429 47.5395847"></polygon>
                                <polygon id="Rectangle-path" fill="#393939" fill-rule="nonzero" points="21.1287043 46.4008953 23.1593205 44.370279 27.4673156 48.6782741 25.4366994 50.7088903"></polygon>
                                <polygon id="Rectangle-path" fill="#393939" fill-rule="nonzero" points="16.9029634 49.4711334 18.8345122 47.5395847 24.2980099 53.0030824 22.3664612 54.9346312"></polygon>
                                <polygon id="Rectangle-path" fill="#393939" fill-rule="nonzero" points="13.7336578 53.7959418 15.764274 51.7653255 20.0722691 56.0733206 18.0416529 58.1039368"></polygon>
                                <polygon id="Rectangle-path" fill="#393939" fill-rule="nonzero" points="9.50791694 57.9226152 11.4394657 55.9910664 16.9029634 61.4545642 14.9714147 63.3861129"></polygon>
                            </g>
                            <g id="col:-5,-row:2" stroke-width="1" fill="none" transform="translate(439.111111, 181.750000) rotate(-175.242608) translate(-439.111111, -181.750000) translate(398.491659, 141.130548)">
                                <path d="M80.8425476,16.6457542 L64.5939973,0.397108548 C64.0645171,-0.132369516 63.2088125,-0.132369516 62.6793324,0.397108548 L0.397110096,62.679088 C-0.132370032,63.208566 -0.132370032,64.0642673 0.397110096,64.5937454 L16.6456604,80.8422324 C16.898897,81.0967372 17.2441618,81.2389046 17.6029136,81.2389046 C17.9616653,81.2389046 18.3056608,81.0967372 18.5601667,80.8422324 L80.8422303,18.5604116 C81.0967362,18.3071761 81.238904,17.9619126 81.238904,17.6031622 C81.2392214,17.2442532 81.0970535,16.9002591 80.8425476,16.6457542 Z M17.6030722,77.9703256 L3.26918675,63.636496 L63.6365855,3.269174 L77.970471,17.6030036 L17.6030722,77.9703256 Z" id="Shape" fill="#393939" fill-rule="nonzero"></path>
                                <polygon id="Rectangle-path" fill="#393939" fill-rule="nonzero" points="54.1592697 12.4171998 56.1612253 10.4152442 60.4084162 14.6624351 58.4064606 16.6643907"></polygon>
                                <polygon id="Rectangle-path" fill="#393939" fill-rule="nonzero" points="49.993172 16.4856282 51.8974584 14.5813418 57.283843 19.9677264 55.3795566 21.8720128"></polygon>
                                <polygon id="Rectangle-path" fill="#393939" fill-rule="nonzero" points="45.8270744 20.7493951 47.8290299 18.7474395 52.0762209 22.9946304 50.0742653 24.996586"></polygon>
                                <polygon id="Rectangle-path" fill="#393939" fill-rule="nonzero" points="41.6609767 24.8178236 43.5652631 22.9135372 48.9516476 28.2999217 47.0473612 30.2042081"></polygon>
                                <polygon id="Rectangle-path" fill="#393939" fill-rule="nonzero" points="37.494879 29.0815904 39.4968346 27.0796349 43.7440255 31.3268258 41.74207 33.3287814"></polygon>
                                <polygon id="Rectangle-path" fill="#393939" fill-rule="nonzero" points="33.3287814 33.1500189 35.2330677 31.2457325 40.6194523 36.6321171 38.7151659 38.5364034"></polygon>
                                <polygon id="Rectangle-path" fill="#393939" fill-rule="nonzero" points="29.1626837 37.4144713 31.1645551 35.4118302 35.4118302 39.6583356 33.4099588 41.6609767"></polygon>
                                <polygon id="Rectangle-path" fill="#393939" fill-rule="nonzero" points="24.996586 41.4822142 26.9008724 39.5779279 32.2872569 44.9643124 30.3829706 46.8685988"></polygon>
                                <polygon id="Rectangle-path" fill="#393939" fill-rule="nonzero" points="20.8304883 45.7459811 22.8324439 43.7440255 27.0796349 47.9912165 25.0776793 49.993172"></polygon>
                                <polygon id="Rectangle-path" fill="#393939" fill-rule="nonzero" points="16.6643907 48.7728852 18.5686771 46.8685988 23.9550616 52.2549833 22.0507752 54.1592697"></polygon>
                                <polygon id="Rectangle-path" fill="#393939" fill-rule="nonzero" points="13.5398174 53.036652 15.541773 51.0346965 19.7889639 55.2818874 17.7870084 57.283843"></polygon>
                                <polygon id="Rectangle-path" fill="#393939" fill-rule="nonzero" points="9.37371976 57.1050805 11.2780061 55.2007941 16.6643907 60.5871787 14.7601043 62.491465"></polygon>
                            </g>
                            <g id="col:-8,-row:1" stroke-width="1" fill="none" transform="translate(707.777778, 102.875000) rotate(-114.766031) translate(-707.777778, -102.875000) translate(666.274266, 61.371488)">
                                <path d="M82.6020398,17.0080396 L65.999849,0.40575139 C65.458845,-0.135250463 64.5845164,-0.135250463 64.0435125,0.40575139 L0.405752972,64.0432627 C-0.135250991,64.5842646 -0.135250991,65.4585897 0.405752972,65.9995916 L17.0079438,82.6017177 C17.2666919,82.8617617 17.6194712,83.0070232 17.986031,83.0070232 C18.3525908,83.0070232 18.7040731,82.8617617 18.9641182,82.6017177 L82.6017155,18.9643684 C82.8617606,18.7056214 83.0070227,18.3528434 83.0070227,17.9862851 C83.0073469,17.6195646 82.8620849,17.2680836 82.6020398,17.0080396 Z M17.9861931,79.6673055 L3.34033875,65.0215082 L65.0215997,3.34032572 L79.667454,17.986123 L17.9861931,79.6673055 Z" id="Shape" fill="#393939" fill-rule="nonzero"></path>
                                <polygon id="Rectangle-path" fill="#393939" fill-rule="nonzero" points="55.3380155 12.6874531 57.3835425 10.6419261 61.7231711 14.9815547 59.6776441 17.0270817"></polygon>
                                <polygon id="Rectangle-path" fill="#393939" fill-rule="nonzero" points="51.0812451 16.8444286 53.0269772 14.8986965 58.5305933 20.4023126 56.5848612 22.3480447"></polygon>
                                <polygon id="Rectangle-path" fill="#393939" fill-rule="nonzero" points="46.8244746 21.2009939 48.8700016 19.1554669 53.2096303 23.4950955 51.1641033 25.5406225"></polygon>
                                <polygon id="Rectangle-path" fill="#393939" fill-rule="nonzero" points="42.5677042 25.3579694 44.5134363 23.4122373 50.0170525 28.9158535 48.0713204 30.8615856"></polygon>
                                <polygon id="Rectangle-path" fill="#393939" fill-rule="nonzero" points="38.3109338 29.7145347 40.3564608 27.6690077 44.6960894 32.0086364 42.6505624 34.0541634"></polygon>
                                <polygon id="Rectangle-path" fill="#393939" fill-rule="nonzero" points="34.0541634 33.8715103 35.9998955 31.9257782 41.5035116 37.4293943 39.5577795 39.3751264"></polygon>
                                <polygon id="Rectangle-path" fill="#393939" fill-rule="nonzero" points="29.797393 38.2287761 31.8428339 36.1825486 36.1825486 40.5214767 34.1371076 42.5677042"></polygon>
                                <polygon id="Rectangle-path" fill="#393939" fill-rule="nonzero" points="25.5406225 42.3850511 27.4863546 40.439319 32.9899708 45.9429352 31.0442387 47.8886672"></polygon>
                                <polygon id="Rectangle-path" fill="#393939" fill-rule="nonzero" points="21.2838521 46.7416164 23.3293791 44.6960894 27.6690077 49.0357181 25.6234807 51.0812451"></polygon>
                                <polygon id="Rectangle-path" fill="#393939" fill-rule="nonzero" points="17.0270817 49.8343993 18.9728138 47.8886672 24.4764299 53.3922834 22.5306978 55.3380155"></polygon>
                                <polygon id="Rectangle-path" fill="#393939" fill-rule="nonzero" points="13.8345039 54.1909647 15.8800309 52.1454377 20.2196595 56.4850663 18.1741325 58.5305933"></polygon>
                                <polygon id="Rectangle-path" fill="#393939" fill-rule="nonzero" points="9.57773345 58.3479402 11.5234655 56.4022081 17.0270817 61.9058242 15.0813496 63.8515563"></polygon>
                            </g>
                            <g id="col:-6,-row:1" stroke-width="1" fill="none" transform="translate(535.333333, 98.875000) rotate(-250.883133) translate(-535.333333, -98.875000) translate(496.312698, 59.854365)">
                                <path d="M77.6605144,15.9905628 L62.0515212,0.381478009 C61.5428819,-0.127159336 60.7208585,-0.127159336 60.2122192,0.381478009 L0.381479496,60.2119844 C-0.127159832,60.7206217 -0.127159832,61.5426419 0.381479496,62.0512792 L15.9904727,77.6602116 C16.2337417,77.9046989 16.5654166,78.0412704 16.9100475,78.0412704 C17.2546785,78.0412704 17.585134,77.9046989 17.8296223,77.6602116 L77.6602096,17.8298576 C77.9046979,17.5865897 78.0412699,17.254916 78.0412699,16.9102864 C78.0415748,16.5655044 77.9050027,16.2350502 77.6605144,15.9905628 Z M16.9101999,74.9013455 L3.14050871,61.131708 L61.131794,3.14049646 L74.9014852,16.910134 L16.9101999,74.9013455 Z" id="Shape" fill="#393939" fill-rule="nonzero"></path>
                                <polygon id="Rectangle-path" fill="#393939" fill-rule="nonzero" points="52.0275136 11.9284479 53.9506705 10.0052911 58.0306883 14.0853089 56.1075314 16.0084657"></polygon>
                                <polygon id="Rectangle-path" fill="#393939" fill-rule="nonzero" points="48.0253972 15.8367395 49.8547292 14.0074075 55.0291009 19.1817793 53.1997689 21.0111113"></polygon>
                                <polygon id="Rectangle-path" fill="#393939" fill-rule="nonzero" points="44.0232808 19.9326808 45.9464376 18.0095239 50.0264554 22.0895417 48.1032985 24.0126986"></polygon>
                                <polygon id="Rectangle-path" fill="#393939" fill-rule="nonzero" points="40.0211643 23.8409724 41.8504963 22.0116404 47.0248681 27.1860121 45.1955361 29.0153441"></polygon>
                                <polygon id="Rectangle-path" fill="#393939" fill-rule="nonzero" points="36.0190479 27.9369137 37.9422047 26.0137568 42.0222225 30.0937746 40.0990657 32.0169315"></polygon>
                                <polygon id="Rectangle-path" fill="#393939" fill-rule="nonzero" points="32.0169315 31.8452052 33.8462635 30.0158732 39.0206352 35.190245 37.1913032 37.019577"></polygon>
                                <polygon id="Rectangle-path" fill="#393939" fill-rule="nonzero" points="28.014815 35.9418051 29.937891 34.0179897 34.0179897 38.0973489 32.0949137 40.0211643"></polygon>
                                <polygon id="Rectangle-path" fill="#393939" fill-rule="nonzero" points="24.0126986 39.8494381 25.8420306 38.0201061 31.0164023 43.1944779 29.1870703 45.0238099"></polygon>
                                <polygon id="Rectangle-path" fill="#393939" fill-rule="nonzero" points="20.0105822 43.9453794 21.933739 42.0222225 26.0137568 46.1022403 24.0905999 48.0253972"></polygon>
                                <polygon id="Rectangle-path" fill="#393939" fill-rule="nonzero" points="16.0084657 46.8531419 17.8377977 45.0238099 23.0121695 50.1981816 21.1828375 52.0275136"></polygon>
                                <polygon id="Rectangle-path" fill="#393939" fill-rule="nonzero" points="13.0068784 50.9490832 14.9300353 49.0259263 19.0100531 53.1059441 17.0868962 55.0291009"></polygon>
                                <polygon id="Rectangle-path" fill="#393939" fill-rule="nonzero" points="9.00476197 54.8573747 10.834094 53.0280427 16.0084657 58.2024145 14.1791337 60.0317465"></polygon>
                            </g>
                            <g id="col:-7,-row:8" stroke-width="1" fill="none" transform="translate(769.555556, 391.000000) rotate(-216.986947) translate(-769.555556, -391.000000) translate(745.704092, 380.399350)">
                                <path d="M37.9305047,0 C32.9713085,0 27.5355601,2.79086211 23.8514631,7.0238945 C20.1664121,2.79086211 14.7311406,0 9.77242146,0 C5.04792365,0 0,2.78459809 0,10.6006503 C0,18.4167024 5.04792365,21.2008187 9.77242146,21.2013005 C14.7320947,21.2013005 20.1664121,18.4109203 23.8514631,14.1788516 C27.5355601,18.4109203 32.9708315,21.2013005 37.9295507,21.2013005 C42.6550026,21.2013005 47.7029262,18.4167024 47.7029262,10.6006503 C47.7029262,2.78459809 42.6550026,0 37.9305047,0 Z M9.71729675,16.8363269 C6.14781244,16.8363269 4.33662966,14.7384791 4.33662966,10.6004141 C4.33662966,6.46376621 6.14781244,4.36497364 9.71729675,4.36497364 C13.6649764,4.36497364 18.2491197,6.92858995 21.0636298,10.6004141 C18.2495919,14.2722382 13.6663929,16.8363269 9.71729675,16.8363269 Z M37.9846851,16.8363269 C34.0370055,16.8363269 29.4528622,14.2722382 26.6392965,10.6004141 C29.4528622,6.92858995 34.0379498,4.36497364 37.9856295,4.36497364 C41.5560581,4.36497364 43.3662966,6.46329382 43.3662966,10.6004141 C43.3653522,14.7384791 41.5551138,16.8363269 37.9846851,16.8363269 Z" id="Shape" fill="#393939" fill-rule="nonzero"></path>
                            </g>
                            <g id="col:-5,-row:8" stroke-width="1" fill="none" transform="translate(447.111111, 725.000000) rotate(-200.944983) translate(-447.111111, -725.000000) translate(424.588613, 714.990001)">
                                <path d="M35.8170779,0 C31.1342001,0 26.0013229,2.63535975 22.5224979,6.63253437 C19.0427719,2.63535975 13.9103451,0 9.22791782,0 C4.76666145,0 0,2.62944475 0,10.009999 C0,17.3905533 4.76666145,20.0195431 9.22791782,20.0199981 C13.911246,20.0199981 19.0427719,17.3850933 22.5224979,13.3888287 C26.0013229,17.3850933 31.1337497,20.0199981 35.816177,20.0199981 C40.2783343,20.0199981 45.0449957,17.3905533 45.0449957,10.009999 C45.0449957,2.62944475 40.2783343,0 35.8170779,0 Z M9.17586457,15.8982338 C5.80526619,15.8982338 4.09499961,13.9172747 4.09499961,10.009776 C4.09499961,6.10361553 5.80526619,4.12176431 9.17586457,4.12176431 C12.9035859,4.12176431 17.232308,6.54254004 19.8899981,10.009776 C17.2327539,13.477012 12.9049234,15.8982338 9.17586457,15.8982338 Z M35.8682395,15.8982338 C32.1405182,15.8982338 27.811796,13.477012 25.1549976,10.009776 C27.811796,6.54254004 32.1414099,4.12176431 35.8691312,4.12176431 C39.2406212,4.12176431 40.9499961,6.10316947 40.9499961,10.009776 C40.9491044,13.9172747 39.2397295,15.8982338 35.8682395,15.8982338 Z" id="Shape" fill="#393939" fill-rule="nonzero"></path>
                            </g>
                            <g id="col:-4,-row:6" stroke-width="1" fill="none" transform="translate(345.888889, 563.250000) rotate(-262.454852) translate(-345.888889, -563.250000) translate(323.470299, 553.286182)">
                                <path d="M35.6518347,0 C30.9905615,0 25.8813649,2.62320143 22.4185896,6.60193496 C18.9549175,2.62320143 13.8461693,0 9.18534453,0 C4.7446703,0 0,2.61731372 0,9.9638176 C0,17.3103215 4.7446703,19.9271823 9.18534453,19.9276352 C13.847066,19.9276352 18.9549175,17.3048867 22.4185896,13.3270589 C25.8813649,17.3048867 30.9901131,19.9276352 35.6509379,19.9276352 C40.0925089,19.9276352 44.8371792,17.3103215 44.8371792,9.9638176 C44.8371792,2.61731372 40.0925089,0 35.6518347,0 Z M9.13353142,15.8248868 C5.77848341,15.8248868 4.0761072,13.8530669 4.0761072,9.96359559 C4.0761072,6.0754563 5.77848341,4.10274842 9.13353142,4.10274842 C12.8440548,4.10274842 17.1528062,6.51235582 19.798235,9.96359559 C17.15325,13.4148354 12.8453861,15.8248868 9.13353142,15.8248868 Z M35.7027602,15.8248868 C31.9922368,15.8248868 27.6834854,13.4148354 25.0389442,9.96359559 C27.6834854,6.51235582 31.9931244,4.10274842 35.7036478,4.10274842 C39.0595833,4.10274842 40.761072,6.0750123 40.761072,9.96359559 C40.7601844,13.8530669 39.0586958,15.8248868 35.7027602,15.8248868 Z" id="Shape" fill="#393939" fill-rule="nonzero"></path>
                            </g>
                            <g id="col:-0,-row:6" stroke-width="1" fill="none" transform="translate(24.000000, 602.250000) rotate(-134.296205) translate(-24.000000, -602.250000) translate(1.274691, 592.149863)">
                                <path d="M36.1396044,0 C31.4145581,0 26.2354602,2.6590907 22.725309,6.69225917 C19.2142487,2.6590907 14.0356053,0 9.31101359,0 C4.80958439,0 0,2.65312244 0,10.1001373 C0,17.5471522 4.80958439,20.1998155 9.31101359,20.2002746 C14.0365143,20.2002746 19.2142487,17.541643 22.725309,13.5093928 C26.2354602,17.541643 31.4141036,20.2002746 36.1386953,20.2002746 C40.6410336,20.2002746 45.4506179,17.5471522 45.4506179,10.1001373 C45.4506179,2.65312244 40.6410336,0 36.1396044,0 Z M9.25849161,16.0413946 C5.85754159,16.0413946 4.13187436,14.0425973 4.13187436,10.0999123 C4.13187436,6.15857751 5.85754159,4.15888007 9.25849161,4.15888007 C13.0197804,4.15888007 17.3874819,6.60145445 20.069104,10.0999123 C17.3879318,13.5983701 13.02113,16.0413946 9.25849161,16.0413946 Z M36.1912266,16.0413946 C32.4299378,16.0413946 28.0622363,13.5983701 25.3815139,10.0999123 C28.0622363,6.60145445 32.4308376,4.15888007 36.1921263,4.15888007 C39.5939761,4.15888007 41.3187436,6.15812743 41.3187436,10.0999123 C41.3178439,14.0425973 39.5930764,16.0413946 36.1912266,16.0413946 Z" id="Shape" fill="#393939" fill-rule="nonzero"></path>
                            </g>
                            <g id="col:-7,-row:5" stroke-width="1" fill="none" transform="translate(620.555556, 464.375000) rotate(-256.325250) translate(-620.555556, -464.375000) translate(596.989184, 453.901057)">
                                <path d="M37.4771293,0 C32.5772093,0 27.2064332,2.75750351 23.5663715,6.93993934 C19.9253671,2.75750351 14.5550624,0 9.65561373,0 C4.98758687,0 0,2.75131436 0,10.4739429 C0,18.1965714 4.98758687,20.9474097 9.65561373,20.9478858 C14.556005,20.9478858 19.9253671,18.1908584 23.5663715,14.0093747 C27.2064332,18.1908584 32.576738,20.9478858 37.4761866,20.9478858 C42.1451561,20.9478858 47.132743,18.1965714 47.132743,10.4739429 C47.132743,2.75131436 42.1451561,0 37.4771293,0 Z M9.60114791,16.6350858 C6.07432891,16.6350858 4.28479482,14.5623131 4.28479482,10.4737095 C4.28479482,6.38650615 6.07432891,4.31280001 9.60114791,4.31280001 C13.5016418,4.31280001 18.0309918,6.84577395 20.8118606,10.4737095 C18.0314583,14.1016451 13.5030413,16.6350858 9.60114791,16.6350858 Z M37.5306621,16.6350858 C33.6301682,16.6350858 29.1008182,14.1016451 26.3208825,10.4737095 C29.1008182,6.84577395 33.6311012,4.31280001 37.5315951,4.31280001 C41.0593471,4.31280001 42.8479482,6.38603941 42.8479482,10.4737095 C42.8470152,14.5623131 41.0584141,16.6350858 37.5306621,16.6350858 Z" id="Shape" fill="#393939" fill-rule="nonzero"></path>
                            </g>
                            <g id="col:-5,-row:5" stroke-width="1" fill="none" transform="translate(437.111111, 469.375000) rotate(-132.361642) translate(-437.111111, -469.375000) translate(413.047464, 458.680046)">
                                <path d="M38.267937,0 C33.2646235,0 27.7805182,2.8156898 24.0636473,7.08637952 C20.3458138,2.8156898 14.8621898,0 9.85935756,0 C5.09283031,0 0,2.80937005 0,10.6949543 C0,18.5805386 5.09283031,21.3894226 9.85935756,21.3899087 C14.8631524,21.3899087 20.3458138,18.574705 24.0636473,14.3049876 C27.7805182,18.574705 33.2641422,21.3899087 38.2669744,21.3899087 C43.0344642,21.3899087 48.1272946,18.5805386 48.1272946,10.6949543 C48.1272946,2.80937005 43.0344642,0 38.267937,0 Z M9.80374246,16.986104 C6.20250378,16.986104 4.3752086,14.8695936 4.3752086,10.6947161 C4.3752086,6.52126829 6.20250378,4.40380473 9.80374246,4.40380473 C13.7865409,4.40380473 18.4114651,6.99022714 21.2510132,10.6947161 C18.4119414,14.399205 13.78797,16.986104 9.80374246,16.986104 Z M38.3225994,16.986104 C34.3398009,16.986104 29.7148768,14.399205 26.8762814,10.6947161 C29.7148768,6.99022714 34.3407536,4.40380473 38.3235521,4.40380473 C41.9257435,4.40380473 43.752086,6.52079171 43.752086,10.6947161 C43.7511333,14.8695936 41.9247908,16.986104 38.3225994,16.986104 Z" id="Shape" fill="#393939" fill-rule="nonzero"></path>
                            </g>
                            <g id="col:-2,-row:5" stroke-width="1" fill="none" transform="translate(154.444444, 474.375000) rotate(-318.382691) translate(-154.444444, -474.375000) translate(131.697790, 464.265376)">
                                <path d="M36.173549,0 C31.4440647,0 26.2601023,2.66158829 22.7466541,6.69854498 C19.232296,2.66158829 14.0487885,0 9.3197591,0 C4.81410187,0 0,2.65561442 0,10.109624 C0,17.5636336 4.81410187,20.2187885 9.3197591,20.2192481 C14.0496984,20.2192481 19.232296,17.5581193 22.7466541,13.5220817 C26.2601023,17.5581193 31.4436098,20.2192481 36.1726392,20.2192481 C40.6792063,20.2192481 45.4933081,17.5636336 45.4933081,10.109624 C45.4933081,2.65561442 40.6792063,0 36.173549,0 Z M9.26718779,16.0564617 C5.86304338,16.0564617 4.13575528,14.055787 4.13575528,10.1093988 C4.13575528,6.16436204 5.86304338,4.16278637 9.26718779,4.16278637 C13.0320094,4.16278637 17.4038134,6.60765497 20.0879542,10.1093988 C17.4042637,13.6111426 13.0333603,16.0564617 9.26718779,16.0564617 Z M36.2252198,16.0564617 C32.4603982,16.0564617 28.0885942,13.6111426 25.4053539,10.1093988 C28.0885942,6.60765497 32.4612987,4.16278637 36.2261203,4.16278637 C39.6311653,4.16278637 41.3575528,6.16391154 41.3575528,10.1093988 C41.3566523,14.055787 39.6302648,16.0564617 36.2252198,16.0564617 Z" id="Shape" fill="#393939" fill-rule="nonzero"></path>
                            </g>
                            <g id="col:-7,-row:4" stroke-width="1" fill="none" transform="translate(627.555556, 371.500000) rotate(-186.512280) translate(-627.555556, -371.500000) translate(604.822623, 361.396475)">
                                <path d="M36.1517277,0 C31.4250964,0 26.2442611,2.65998271 22.7329324,6.69450414 C19.2206943,2.65998271 14.0403137,0 9.31413704,0 C4.8111978,0 0,2.65401245 0,10.1035255 C0,17.5530385 4.8111978,20.2065917 9.31413704,20.207051 C14.041223,20.207051 19.2206943,17.5475275 22.7329324,13.5139246 C26.2442611,17.5475275 31.4246417,20.207051 36.1508183,20.207051 C40.6546669,20.207051 45.4658647,17.5530385 45.4658647,10.1035255 C45.4658647,2.65401245 40.6546669,0 36.1517277,0 Z M9.26159744,16.0467758 C5.85950655,16.0467758 4.13326043,14.047308 4.13326043,10.1033004 C4.13326043,6.16064345 5.85950655,4.1602752 9.26159744,4.1602752 C13.024148,4.1602752 17.3933147,6.60366896 20.0758364,10.1033004 C17.3937647,13.6029318 13.025498,16.0467758 9.26159744,16.0467758 Z M36.2033672,16.0467758 C32.4408167,16.0467758 28.07165,13.6029318 25.3900283,10.1033004 C28.07165,6.60366896 32.4417167,4.1602752 36.2042673,4.1602752 C39.6072582,4.1602752 41.3326043,6.16019322 41.3326043,10.1033004 C41.3317043,14.047308 39.6063582,16.0467758 36.2033672,16.0467758 Z" id="Shape" fill="#393939" fill-rule="nonzero"></path>
                            </g>
                            <g id="col:-4,-row:4" stroke-width="1" fill="none" transform="translate(343.888889, 367.500000) rotate(-58.537548) translate(-343.888889, -367.500000) translate(320.034515, 356.898056)">
                                <path d="M37.9351341,0 C32.9753326,0 27.5389208,2.79120273 23.8543741,7.02475175 C20.1688733,2.79120273 14.7329385,0 9.77361417,0 C5.04853974,0 0,2.78493794 0,10.6019441 C0,18.4189502 5.04853974,21.2034062 9.77361417,21.2038881 C14.7338927,21.2038881 20.1688733,18.4131673 23.8543741,14.1805821 C27.5389208,18.4131673 32.9748555,21.2038881 37.9341799,21.2038881 C42.6602085,21.2038881 47.7087482,18.4189502 47.7087482,10.6019441 C47.7087482,2.78493794 42.6602085,0 37.9351341,0 Z M9.71848272,16.8383817 C6.14856276,16.8383817 4.33715893,14.7402779 4.33715893,10.6017078 C4.33715893,6.46455509 6.14856276,4.36550638 9.71848272,4.36550638 C13.6666442,4.36550638 18.251347,6.92943557 21.0662005,10.6017078 C18.2518192,14.2739801 13.6680608,16.8383817 9.71848272,16.8383817 Z M37.9893211,16.8383817 C34.0411596,16.8383817 29.4564569,14.2739801 26.6425477,10.6017078 C29.4564569,6.92943557 34.042104,4.36550638 37.9902655,4.36550638 C41.5611299,4.36550638 43.3715893,6.46408265 43.3715893,10.6017078 C43.3706449,14.7402779 41.5601855,16.8383817 37.9893211,16.8383817 Z" id="Shape" fill="#393939" fill-rule="nonzero"></path>
                            </g>
                            <g id="col:-9,-row:3" stroke-width="1" fill="none" transform="translate(776.000000, 163.625000) rotate(-208.830228) translate(-776.000000, -163.625000) translate(754.902548, 154.248354)">
                                <path d="M33.5508567,0 C29.1642743,0 24.3561649,2.46861504 21.0974524,6.21288008 C17.837896,2.46861504 13.0302086,0 8.64404821,0 C4.46506483,0 0,2.4630743 0,9.37664553 C0,16.2902168 4.46506483,18.7528648 8.64404821,18.7532911 C13.0310525,18.7532911 17.837896,16.2851022 21.0974524,12.5416896 C24.3561649,16.2851022 29.1638524,18.7532911 33.5500128,18.7532911 C37.72984,18.7532911 42.1949049,16.2902168 42.1949049,9.37664553 C42.1949049,2.4630743 37.72984,0 33.5508567,0 Z M8.59528848,14.8923194 C5.43795489,14.8923194 3.83590044,13.0366997 3.83590044,9.37643661 C3.83590044,5.71742704 5.43795489,3.86097169 8.59528848,3.86097169 C12.0871491,3.86097169 16.141984,6.12857988 18.6315164,9.37643661 C16.1424016,12.6242933 12.088402,14.8923194 8.59528848,14.8923194 Z M33.5987811,14.8923194 C30.1069205,14.8923194 26.0520856,12.6242933 23.5633884,9.37643661 C26.0520856,6.12857988 30.1077558,3.86097169 33.5996164,3.86097169 C36.7577853,3.86097169 38.3590044,5.7170092 38.3590044,9.37643661 C38.3581692,13.0366997 36.75695,14.8923194 33.5987811,14.8923194 Z" id="Shape" fill="#393939" fill-rule="nonzero"></path>
                            </g>
                            <g id="col:-6,-row:3" stroke-width="1" fill="none" transform="translate(532.333333, 278.625000) rotate(-262.808199) translate(-532.333333, -278.625000) translate(507.781985, 267.713290)">
                                <path d="M39.0435179,0 C33.9388016,0 28.3435493,2.87275572 24.5513481,7.23000003 C20.7581648,2.87275572 15.1634036,0 10.0591783,0 C5.19604731,0 0,2.86630789 0,10.9117103 C0,18.9571126 5.19604731,21.8229245 10.0591783,21.8234205 C15.1643857,21.8234205 20.7581648,18.9511608 24.5513481,14.5949085 C28.3435493,18.9511608 33.9383105,21.8234205 39.0425358,21.8234205 C43.9066489,21.8234205 49.1026962,18.9571126 49.1026962,10.9117103 C49.1026962,2.86630789 43.9066489,0 39.0435179,0 Z M10.0024361,17.3303634 C6.32821066,17.3303634 4.46388147,15.1709574 4.46388147,10.9114671 C4.46388147,6.65343562 6.32821066,4.49305717 10.0024361,4.49305717 C14.0659544,4.49305717 18.7846124,7.13189891 21.68171,10.9114671 C18.7850984,14.6910354 14.0674124,17.3303634 10.0024361,17.3303634 Z M39.0992881,17.3303634 C35.0357698,17.3303634 30.3171118,14.6910354 27.4209862,10.9114671 C30.3171118,7.13189891 35.0367418,4.49305717 39.1002601,4.49305717 C42.7754576,4.49305717 44.6388147,6.65294937 44.6388147,10.9114671 C44.6378427,15.1709574 42.7744855,17.3303634 39.0992881,17.3303634 Z" id="Shape" fill="#393939" fill-rule="nonzero"></path>
                            </g>
                            <g id="col:-4,-row:3" stroke-width="1" fill="none" transform="translate(334.888889, 278.625000) rotate(-171.517159) translate(-334.888889, -278.625000) translate(312.797451, 268.806583)">
                                <path d="M35.131572,0 C30.5383202,0 25.5036815,2.58492139 22.091438,6.50559378 C18.6783108,2.58492139 13.6441139,0 9.05130398,0 C4.67543194,0 0,2.5791196 0,9.81841689 C0,17.0577142 4.67543194,19.6363875 9.05130398,19.6368338 C13.6449976,19.6368338 18.6783108,17.0523587 22.091438,13.1325789 C25.5036815,17.0523587 30.5378784,19.6368338 35.1306884,19.6368338 C39.5074441,19.6368338 44.182876,17.0577142 44.182876,9.81841689 C44.182876,2.5791196 39.5074441,0 35.131572,0 Z M9.00024698,15.5939562 C5.69415875,15.5939562 4.01662509,13.6509109 4.01662509,9.81819813 C4.01662509,5.98679795 5.69415875,4.04287754 9.00024698,4.04287754 C12.6566231,4.04287754 16.9024975,6.41732185 19.5093219,9.81819813 C16.9029349,13.2190744 12.6579351,15.5939562 9.00024698,15.5939562 Z M35.1817544,15.5939562 C31.5253783,15.5939562 27.2795038,13.2190744 24.6735541,9.81819813 C27.2795038,6.41732185 31.5262529,4.04287754 35.182629,4.04287754 C38.4895919,4.04287754 40.1662509,5.98636043 40.1662509,9.81819813 C40.1653763,13.6509109 38.4887173,15.5939562 35.1817544,15.5939562 Z" id="Shape" fill="#393939" fill-rule="nonzero"></path>
                            </g>
                            <g id="col:-7,-row:2" stroke-width="1" fill="none" transform="translate(612.555556, 184.750000) rotate(-139.689113) translate(-612.555556, -184.750000) translate(590.143083, 174.788901)">
                                <path d="M35.6421064,0 C30.9821052,0 25.8743027,2.62248565 22.4124723,6.6001335 C18.9497453,2.62248565 13.8423911,0 9.18283814,0 C4.74337563,0 0,2.61659954 0,9.96109879 C0,17.305598 4.74337563,19.9217448 9.18283814,19.9221976 C13.8432876,19.9221976 18.9497453,17.3001647 22.4124723,13.3234224 C25.8743027,17.3001647 30.9816569,19.9221976 35.6412099,19.9221976 C40.0815689,19.9221976 44.8249446,17.305598 44.8249446,9.96109879 C44.8249446,2.61659954 40.0815689,0 35.6421064,0 Z M9.13103918,15.8205687 C5.77690665,15.8205687 4.07499496,13.8492868 4.07499496,9.96087685 C4.07499496,6.0737985 5.77690665,4.10162891 9.13103918,4.10162891 C12.84055,4.10162891 17.1481258,6.5105788 19.7928327,9.96087685 C17.1485695,13.4111749 12.841881,15.8205687 9.13103918,15.8205687 Z M35.693018,15.8205687 C31.9835072,15.8205687 27.6759314,13.4111749 25.0321119,9.96087685 C27.6759314,6.5105788 31.9843945,4.10162891 35.6939054,4.10162891 C39.0489252,4.10162891 40.7499496,6.07335462 40.7499496,9.96087685 C40.7490623,13.8492868 39.0480379,15.8205687 35.693018,15.8205687 Z" id="Shape" fill="#393939" fill-rule="nonzero"></path>
                            </g>
                            <g id="col:-8,-row:8" stroke-width="1" fill="none" transform="translate(702.777778, 723.000000) rotate(-341.956733) translate(-702.777778, -723.000000) translate(682.874290, 707.262359)">
                                <path d="M38.0342847,3.54639878 L18.7219022,3.54639878 L11.141275,30.2447392 C10.9120108,30.9563412 10.2615362,31.4489338 9.51464203,31.4747469 C9.49357258,31.4747469 9.47321735,31.4752828 9.45321923,31.4752828 C8.73078709,31.4752828 8.07745559,31.0354776 7.8073024,30.3607641 L4.70812921,22.6095092 L1.77224425,22.6095092 C0.793139788,22.6095985 0,21.8155553 0,20.8362651 C0,19.8568856 0.793943284,19.0629318 1.77224425,19.0629318 L5.90837362,19.0629318 C6.63232347,19.0629318 7.2851193,19.5042554 7.55429045,20.177897 L9.27171842,24.4732331 L15.741825,1.23090093 C15.9774279,0.497326493 16.6595067,0 17.4294343,0 L38.0344632,0 C39.0138355,0 39.8069753,0.794043197 39.8069753,1.77306541 C39.8069753,2.75208762 39.0131213,3.54639878 38.0342847,3.54639878 Z M38.9894628,27.3748402 L32.0027084,19.5233696 L38.6606544,12.1293001 C38.778322,11.9994307 38.8068907,11.8124867 38.7371651,11.652249 C38.6653861,11.4922792 38.5070974,11.3891161 38.331846,11.3891161 L34.1197417,11.3891161 C33.9910038,11.3891161 33.8695866,11.4452976 33.7841482,11.5427442 L29.3150144,16.7274265 L24.8802524,11.544352 C24.7964209,11.4458335 24.6733968,11.3891161 24.5435876,11.3891161 L20.1391798,11.3891161 C19.9645534,11.3891161 19.8062647,11.4917433 19.735557,11.6507306 C19.6632424,11.8101644 19.6927932,11.9968405 19.8091215,12.1269778 L26.3926996,19.523459 L19.4611185,27.3766266 C19.3453258,27.5074784 19.3178284,27.6938866 19.388536,27.8522486 C19.4611185,28.0116825 19.6194072,28.1130592 19.7927838,28.1130592 L24.1584452,28.1130592 C24.2898614,28.1130592 24.4144033,28.055002 24.4983239,27.9536253 L29.1245858,22.3996996 L33.8607481,27.9579126 C33.9456509,28.0570564 34.0685858,28.1135951 34.198395,28.1135951 L38.6595831,28.1135951 C38.8347452,28.1135951 38.9930339,28.0116825 39.0637416,27.8522486 C39.1350742,27.6921002 39.1065947,27.5056921 38.9894628,27.3748402 Z" id="Shape" fill="#393939" fill-rule="nonzero"></path>
                            </g>
                            <g id="col:-0,-row:8" stroke-width="1" fill="none" transform="translate(23.000000, 712.000000) rotate(-254.149897) translate(-23.000000, -712.000000) translate(1.102887, 694.686004)">
                                <path d="M41.8439742,3.90162245 L20.5971744,3.90162245 L12.2572365,33.2741918 C12.0050082,34.0570712 11.289379,34.5990042 10.4676725,34.6274028 C10.4444926,34.6274028 10.4220985,34.6279924 10.4000973,34.6279924 C9.60530302,34.6279924 8.88653083,34.1441343 8.58931784,33.4018384 L5.17971716,24.874182 L1.94976042,24.874182 C0.872584331,24.8742802 0,24.000702 0,22.9233216 C0,21.845843 0.873468309,20.972363 1.94976042,20.972363 L6.50018359,20.972363 C7.29664761,20.972363 8.01483048,21.4578917 8.31096305,22.1990083 L10.2004165,26.9245851 L17.3185988,1.35419365 C17.5778008,0.54714101 18.3281997,0 19.1752469,0 L41.8441707,0 C42.9216414,0 43.7942257,0.873578229 43.7942257,1.95066383 C43.7942257,3.02774942 42.9208556,3.90162245 41.8439742,3.90162245 Z M42.8948274,30.1168305 L35.2082474,21.4789205 L42.533084,13.3442268 C42.6625377,13.2013491 42.693968,12.9956799 42.6172584,12.819392 C42.5382897,12.6433989 42.3641461,12.5299025 42.1713407,12.5299025 L37.5373325,12.5299025 C37.3956996,12.5299025 37.2621207,12.5917114 37.1681244,12.6989188 L32.2513415,18.4029228 L27.3723733,12.7006876 C27.2801449,12.592301 27.1447981,12.5299025 27.0019866,12.5299025 L22.156413,12.5299025 C21.9642952,12.5299025 21.7901516,12.6428093 21.7123615,12.8177215 C21.6328035,12.993125 21.6653142,13.1984994 21.7932946,13.3416719 L29.0363142,21.4790187 L21.410434,30.1187958 C21.2830429,30.2627545 21.2527913,30.4678341 21.3305813,30.6420584 C21.410434,30.8174619 21.5845776,30.928993 21.7753204,30.928993 L26.5782665,30.928993 C26.722846,30.928993 26.8598626,30.8651205 26.9521892,30.7535895 L32.0418388,24.6433569 L37.252397,30.7583062 C37.345804,30.8673807 37.4810526,30.9295826 37.6238641,30.9295826 L42.5319054,30.9295826 C42.7246126,30.9295826 42.8987562,30.8174619 42.9765462,30.6420584 C43.0550238,30.4658688 43.0236917,30.2607892 42.8948274,30.1168305 Z" id="Shape" fill="#393939" fill-rule="nonzero"></path>
                            </g>
                            <g id="col:-7,-row:7" stroke-width="1" fill="none" transform="translate(609.555556, 662.125000) rotate(-263.293479) translate(-609.555556, -662.125000) translate(589.930874, 646.607810)">
                                <path d="M37.5015047,3.49672122 L18.4596479,3.49672122 L10.9852092,29.8210742 C10.7591565,30.5227082 10.1177937,31.0084006 9.38136198,31.0338521 C9.36058767,31.0338521 9.34051757,31.0343806 9.32079958,31.0343806 C8.60848719,31.0343806 7.96430749,30.600736 7.69793857,29.9354739 L4.64217826,22.2927977 L1.74741885,22.2927977 C0.782029574,22.2928857 0,21.5099654 0,20.544393 C0,19.5787326 0.782821815,18.7959003 1.74741885,18.7959003 L5.82560977,18.7959003 C6.53941862,18.7959003 7.18307016,19.231042 7.44847078,19.8952473 L9.14184122,24.1304147 L15.5213152,1.21365861 C15.7536178,0.490359998 16.4261421,0 17.1852847,0 L37.5016807,0 C38.4673341,0 39.2493636,0.782920328 39.2493636,1.74822851 C39.2493636,2.71353669 38.4666298,3.49672122 37.5015047,3.49672122 Z M38.4433028,26.9913765 L31.554418,19.2498884 L38.1191003,11.9593942 C38.2351195,11.831344 38.2632881,11.6470187 38.1945392,11.4890256 C38.1237657,11.3312966 37.9676943,11.2295786 37.7948978,11.2295786 L33.6417961,11.2295786 C33.5148615,11.2295786 33.3951452,11.2849731 33.3109036,11.3810548 L28.9043729,16.4931106 L24.5317325,11.38264 C24.4490754,11.2855015 24.3277746,11.2295786 24.1997837,11.2295786 L19.8570724,11.2295786 C19.6848921,11.2295786 19.5288207,11.3307682 19.4591035,11.4875284 C19.3878019,11.6447289 19.4169387,11.8287901 19.5316376,11.9571045 L26.0229936,19.2499765 L19.1885093,26.9931378 C19.0743386,27.1221567 19.0472264,27.3059537 19.1169436,27.4620974 C19.1885093,27.6192979 19.3445807,27.7192546 19.5155287,27.7192546 L23.8200363,27.7192546 C23.9496117,27.7192546 24.072409,27.6620107 24.1551541,27.562054 L28.7166119,22.0859271 L33.3864305,27.5662813 C33.470144,27.6640362 33.5913568,27.719783 33.7193477,27.719783 L38.118044,27.719783 C38.2907524,27.719783 38.4468238,27.6192979 38.516541,27.4620974 C38.5868744,27.3041923 38.5587938,27.1203954 38.4433028,26.9913765 Z" id="Shape" fill="#393939" fill-rule="nonzero"></path>
                            </g>
                            <g id="col:-8,-row:6" stroke-width="1" fill="none" transform="translate(711.777778, 550.250000) rotate(-270.412308) translate(-711.777778, -550.250000) translate(691.856874, 534.498588)">
                                <path d="M38.0675661,3.54950201 L18.7382846,3.54950201 L11.151024,30.2712044 C10.9215592,30.9834292 10.2705154,31.4764528 9.5229677,31.5022885 C9.50187981,31.5022885 9.48150677,31.5028249 9.46149115,31.5028249 C8.73842685,31.5028249 8.08452367,31.0626348 7.81413408,30.3873309 L4.712249,22.6292933 L1.77379503,22.6292933 C0.793833815,22.6293827 0,21.8346447 0,20.8544976 C0,19.8742612 0.794638014,19.0796125 1.77379503,19.0796125 L5.91354366,19.0796125 C6.638127,19.0796125 7.29149405,19.5213224 7.56090073,20.1955534 L9.27983152,24.4946481 L15.7555997,1.23197802 C15.9914087,0.497761672 16.6740843,0 17.4446857,0 L38.0677448,0 C39.0479741,0 39.8418079,0.794738014 39.8418079,1.77461691 C39.8418079,2.7544958 39.0472593,3.54950201 38.0675661,3.54950201 Z M39.0235801,27.3987942 L32.0307119,19.5404533 L38.6944839,12.1399137 C38.8122544,12.0099307 38.8408482,11.8228231 38.7710616,11.6624451 C38.6992198,11.5023354 38.5407926,11.399082 38.3653878,11.399082 L34.1495977,11.399082 C34.0207471,11.399082 33.8992237,11.4553126 33.8137106,11.5528446 L29.3406661,16.7420636 L24.9020235,11.5544537 C24.8181187,11.455849 24.6949869,11.399082 24.5650641,11.399082 L20.1568023,11.399082 C19.9820231,11.399082 19.8235959,11.501799 19.7528264,11.6609254 C19.6804484,11.8204988 19.7100251,12.0073382 19.8264552,12.1375894 L26.4157942,19.5405427 L19.4781477,27.4005821 C19.3622537,27.5315485 19.3347322,27.7181197 19.4055017,27.8766204 C19.4781477,28.0361937 19.6365749,28.1376592 19.8101032,28.1376592 L24.1795847,28.1376592 C24.3111159,28.1376592 24.4357668,28.0795512 24.5197609,27.9780858 L29.1500709,22.4193001 L33.8903775,27.9823768 C33.9753546,28.0816073 34.098397,28.1381955 34.2283199,28.1381955 L38.6934117,28.1381955 C38.8687271,28.1381955 39.0271543,28.0361937 39.0979238,27.8766204 C39.1693188,27.7163318 39.1408144,27.5297606 39.0235801,27.3987942 Z" id="Shape" fill="#393939" fill-rule="nonzero"></path>
                            </g>
                            <g id="col:-6,-row:6" stroke-width="1" fill="none" transform="translate(536.333333, 568.250000) rotate(-61.287480) translate(-536.333333, -568.250000) translate(514.275680, 550.809065)">
                                <path d="M42.1507558,3.93022743 L20.7481838,3.93022743 L12.3471012,33.5181436 C12.0930236,34.3067627 11.3721478,34.8526689 10.5444169,34.8812757 C10.5210671,34.8812757 10.4985088,34.8818696 10.4763462,34.8818696 C9.67572488,34.8818696 8.95168297,34.394464 8.65229094,33.646726 L5.21769257,25.0565485 L1.9640552,25.0565485 C0.878981735,25.0566475 0,24.1766646 0,23.0913853 C0,22.0060071 0.879872194,21.1261231 1.9640552,21.1261231 L6.54784008,21.1261231 C7.35014342,21.1261231 8.07359169,21.6152115 8.37189537,22.3617617 L10.2752015,27.1219843 L17.4455712,1.364122 C17.7066735,0.551152407 18.462574,0 19.3158314,0 L42.1509537,0 C43.236324,0 44.1153057,0.87998292 44.1153057,1.96496524 C44.1153057,3.04994755 43.2355325,3.93022743 42.1507558,3.93022743 Z M43.2093134,30.3376339 L35.4663787,21.6363944 L42.8449179,13.4420608 C42.9753206,13.2981356 43.0069814,13.0909585 42.9297094,12.9133782 C42.8501617,12.7360948 42.6747413,12.6217663 42.4805224,12.6217663 L37.8125397,12.6217663 C37.6698684,12.6217663 37.5353102,12.6840283 37.4406247,12.7920217 L32.4877942,18.5378449 L27.5730555,12.7938034 C27.4801509,12.6846222 27.3438118,12.6217663 27.1999533,12.6217663 L22.3188541,12.6217663 C22.1253277,12.6217663 21.9499074,12.7355008 21.871547,12.9116954 C21.7914057,13.0883849 21.8241548,13.295265 21.9530734,13.4394872 L29.2491957,21.6364934 L21.5674058,30.3396136 C21.4390808,30.4846277 21.4086074,30.6912108 21.4869677,30.8667125 C21.5674058,31.043402 21.7428262,31.1557507 21.9349674,31.1557507 L26.7731267,31.1557507 C26.9187662,31.1557507 27.0567873,31.09141 27.1497907,30.9790613 L32.2767555,24.8240311 L37.5255151,30.9838126 C37.619607,31.0936867 37.7558471,31.1563447 37.8997057,31.1563447 L42.8437306,31.1563447 C43.0378506,31.1563447 43.213271,31.043402 43.2916314,30.8667125 C43.3706843,30.6892311 43.3391225,30.4826479 43.2093134,30.3376339 Z" id="Shape" fill="#393939" fill-rule="nonzero"></path>
                            </g>
                            <g id="col:-1,-row:6" stroke-width="1" fill="none" transform="translate(76.222222, 560.250000) rotate(-332.459889) translate(-76.222222, -560.250000) translate(55.890013, 544.173370)">
                                <path d="M38.8535434,3.62278823 L19.1251721,3.62278823 L11.3812581,30.896211 C11.1470556,31.623141 10.4825697,32.126344 9.71958748,32.1527132 C9.6980642,32.1527132 9.67727051,32.1532606 9.65684163,32.1532606 C8.9188483,32.1532606 8.25144404,31.703982 7.97547174,31.0147352 L4.80954234,23.0965181 L1.81041841,23.0965181 C0.810224025,23.0966094 0,22.2854625 0,21.2850784 C0,20.2846031 0.811044828,19.4735474 1.81041841,19.4735474 L6.03564002,19.4735474 C6.77518376,19.4735474 7.44204082,19.9243772 7.71700991,20.6125291 L9.47143129,25.0003867 L16.080904,1.25741455 C16.3215818,0.508038909 17.0183525,0 17.8048645,0 L38.8537258,0 C39.8541938,0 40.6644178,0.811146892 40.6644178,1.81125725 C40.6644178,2.81136761 39.8534642,3.62278823 38.8535434,3.62278823 Z M39.8292961,27.9644944 L32.6920469,19.9439031 L39.4934052,12.3905653 C39.6136073,12.2578986 39.6427914,12.0669277 39.5715639,11.9032385 C39.4982388,11.739823 39.3365406,11.6344377 39.1575142,11.6344377 L34.8546811,11.6344377 C34.7231702,11.6344377 34.5991377,11.6918293 34.511859,11.791375 L29.94646,17.0877354 L25.4161732,11.7930174 C25.330536,11.6923768 25.2048619,11.6344377 25.0722566,11.6344377 L20.5729779,11.6344377 C20.39459,11.6344377 20.2328917,11.7392755 20.160661,11.9016874 C20.0867887,12.0645554 20.1169761,12.2552525 20.2358101,12.388193 L26.9611985,19.9439944 L19.8803111,27.9663193 C19.7620242,28.0999897 19.7339345,28.2904131 19.8061652,28.4521862 C19.8803111,28.6150543 20.0420094,28.7186147 20.2191205,28.7186147 L24.6788182,28.7186147 C24.8130652,28.7186147 24.9402897,28.659307 25.026018,28.5557466 L29.7519296,22.8821892 L34.5901089,28.5601262 C34.6768404,28.6614055 34.8024233,28.7191621 34.9350286,28.7191621 L39.4923108,28.7191621 C39.6712459,28.7191621 39.8329441,28.6150543 39.9051748,28.4521862 C39.9780439,28.2885882 39.948951,28.0981649 39.8292961,27.9644944 Z" id="Shape" fill="#393939" fill-rule="nonzero"></path>
                            </g>
                            <g id="col:-6,-row:2" stroke-width="1" fill="none" transform="translate(531.333333, 184.750000) rotate(-88.323812) translate(-531.333333, -184.750000) translate(511.312854, 168.919854)">
                                <path d="M38.2578474,3.56724425 L18.8319482,3.56724425 L11.2067625,30.4225155 C10.9761508,31.1383003 10.3218527,31.6337883 9.57056839,31.6597531 C9.54937509,31.6597531 9.52890022,31.6602922 9.50878455,31.6602922 C8.782106,31.6602922 8.12493428,31.2179018 7.85319314,30.5392225 L4.73580324,22.7424062 L1.78266137,22.7424062 C0.797801805,22.742496 0,21.9437855 0,20.9587391 C0,19.9736029 0.798610024,19.1749823 1.78266137,19.1749823 L5.94310259,19.1749823 C6.67130778,19.1749823 7.32794069,19.6189 7.598694,20.2965012 L9.32621689,24.6170849 L15.8343543,1.23813608 C16.071342,0.500249741 16.75743,0 17.5318832,0 L38.258027,0 C39.243156,0 40.0409578,0.798710524 40.0409578,1.78348736 C40.0409578,2.76826419 39.2424375,3.56724425 38.2578474,3.56724425 Z M39.21864,27.5357474 L32.1908179,19.6381265 L38.8878989,12.2005952 C39.006258,12.0699625 39.0349947,11.8819196 38.9648593,11.72074 C38.8926584,11.5598299 38.7334393,11.4560605 38.5571578,11.4560605 L34.320295,11.4560605 C34.1908003,11.4560605 34.0686695,11.5125722 33.9827289,11.6105916 L29.4873259,16.8257491 L25.0264966,11.6122088 C24.9421725,11.5131112 24.8184252,11.4560605 24.6878529,11.4560605 L20.2575564,11.4560605 C20.0819035,11.4560605 19.9226844,11.5592909 19.8515611,11.7192127 C19.7788214,11.8795837 19.8085459,12.067357 19.9255581,12.1982593 L26.5478339,19.6382164 L19.5755095,27.5375443 C19.4590362,27.6691653 19.4313771,27.8566692 19.5025004,28.015962 C19.5755095,28.1763331 19.7347286,28.2783057 19.9091243,28.2783057 L24.3004467,28.2783057 C24.4326354,28.2783057 24.5579093,28.2199073 24.6423233,28.1179346 L29.295778,22.5313633 L34.0597791,28.1222471 C34.1451809,28.2219737 34.2688384,28.2788447 34.3994106,28.2788447 L38.8868213,28.2788447 C39.063013,28.2788447 39.2222321,28.1763331 39.2933553,28.015962 C39.3651072,27.8548723 39.3364603,27.6673685 39.21864,27.5357474 Z" id="Shape" fill="#393939" fill-rule="nonzero"></path>
                            </g>
                            <g id="col:-7,-row:1" stroke-width="1" fill="none" transform="translate(609.555556, 84.875000) rotate(-273.803918) translate(-609.555556, -84.875000) translate(588.881858, 68.528355)">
                                <path d="M39.5061063,3.6836346 L19.4463881,3.6836346 L11.5724115,31.4151269 C11.3342754,32.154266 10.6586292,32.6659206 9.88283236,32.6927326 C9.86094758,32.6927326 9.83980466,32.6932892 9.81903267,32.6932892 C9.0686444,32.6932892 8.39003078,32.2364647 8.10942341,31.5356417 L4.89032079,23.4844346 L1.8408252,23.4844346 C0.823832105,23.4845274 0,22.6597569 0,21.642571 C0,20.6252922 0.824666694,19.8006145 1.8408252,19.8006145 L6.13701133,19.8006145 C6.88897605,19.8006145 7.56703327,20.2590162 7.84662059,20.9587258 L9.63050828,25.4202795 L16.3509901,1.27853339 C16.5957101,0.516571652 17.3041835,0 18.1039052,0 L39.5062918,0 C40.5235631,0 41.3473952,0.824770472 41.3473952,1.84167814 C41.3473952,2.8585858 40.5228212,3.6836346 39.5061063,3.6836346 Z M40.4982472,28.4341708 L33.2411247,20.27887 L40.1567148,12.5986705 C40.2789358,12.4637755 40.30861,12.2695973 40.2361863,12.1031588 C40.1616296,11.9369986 39.9972156,11.8298434 39.8151825,11.8298434 L35.4400813,11.8298434 C35.3063616,11.8298434 35.1802459,11.8881989 35.0915013,11.9894165 L30.4494244,17.3747317 L25.8430493,11.9910865 C25.7559739,11.8887556 25.628189,11.8298434 25.4933565,11.8298434 L20.9185104,11.8298434 C20.7371264,11.8298434 20.5727123,11.936442 20.4992685,12.1015816 C20.4241555,12.2671851 20.4548498,12.461085 20.5756797,12.5962583 L27.4140241,20.2789628 L20.21421,28.4360263 C20.0939364,28.5719418 20.0653749,28.7655634 20.1388188,28.9300536 C20.21421,29.0956571 20.378624,29.2009568 20.5587098,29.2009568 L25.0933102,29.2009568 C25.2298118,29.2009568 25.3591731,29.140653 25.4463413,29.0353533 L30.2516268,23.266506 L35.1710654,29.0398065 C35.2592537,29.1427869 35.3869458,29.2015135 35.5217783,29.2015135 L40.155602,29.2015135 C40.3375425,29.2015135 40.5019565,29.0956571 40.5754003,28.9300536 C40.6494933,28.7637079 40.6199117,28.5700863 40.4982472,28.4341708 Z" id="Shape" fill="#393939" fill-rule="nonzero"></path>
                            </g>
                            <g id="col:-5,-row:1" stroke-width="1" fill="none" transform="translate(443.111111, 99.875000) rotate(-357.016723) translate(-443.111111, -99.875000) translate(421.072869, 82.449413)">
                                <path d="M42.113663,3.92676881 L20.7299253,3.92676881 L12.3362357,33.4886475 C12.0823817,34.2765726 11.3621402,34.8219984 10.5351377,34.8505801 C10.5118085,34.8505801 10.48927,34.8511735 10.467127,34.8511735 C9.6672102,34.8511735 8.94380545,34.3641968 8.64467689,33.6171168 L5.21310098,25.0344987 L1.96232683,25.0344987 C0.878208228,25.0345976 0,24.155389 0,23.0710648 C0,21.9866417 0.879097903,21.1075321 1.96232683,21.1075321 L6.54207795,21.1075321 C7.34367526,21.1075321 8.0664869,21.59619 8.36452807,22.3420833 L10.2661593,27.0981168 L17.430219,1.36292157 C17.6910915,0.550667391 18.4463269,0 19.2988334,0 L42.1138607,0 C43.1982759,0 44.0764841,0.879208531 44.0764841,1.96323606 C44.0764841,3.04726359 43.197485,3.92676881 42.113663,3.92676881 Z M43.171289,30.3109366 L35.4351682,21.6173543 L42.8072142,13.4302317 C42.9375022,13.2864332 42.9691351,13.0794384 42.891931,12.9020143 C42.8124534,12.7248869 42.6371874,12.6106591 42.4431394,12.6106591 L37.7792645,12.6106591 C37.6367188,12.6106591 37.502279,12.6728663 37.4076768,12.7807646 L32.4592048,18.5215315 L27.5487911,12.7825448 C27.4559683,12.6734597 27.3197492,12.6106591 27.1760172,12.6106591 L22.2992134,12.6106591 C22.1058574,12.6106591 21.9305913,12.7242935 21.8522999,12.9003331 C21.7722292,13.076867 21.8049494,13.2835651 21.9337546,13.4276604 L29.2234563,21.6174532 L21.5484264,30.3129146 C21.4202144,30.4578011 21.3897677,30.6642024 21.4680591,30.8395496 C21.5484264,31.0160836 21.7236924,31.1283336 21.9156646,31.1283336 L26.7495662,31.1283336 C26.8950775,31.1283336 27.0329772,31.0640495 27.1258988,30.9517996 L32.2483518,24.8021859 L37.4924925,30.9565467 C37.5865016,31.0663241 37.7226218,31.1289269 37.8663538,31.1289269 L42.806028,31.1289269 C42.9999771,31.1289269 43.1752431,31.0160836 43.2535346,30.8395496 C43.3325179,30.6622245 43.3009839,30.4558231 43.171289,30.3109366 Z" id="Shape" fill="#393939" fill-rule="nonzero"></path>
                            </g>
                        </g>
                    </g>
                </g>
            </g>
        </g>
    </g>
</svg>