<?xml version="1.0" encoding="UTF-8"?>
<svg width="849px" height="750px" viewBox="0 0 849 750" version="1.1" xmlns="http://www.w3.org/2000/svg" xmlns:xlink="http://www.w3.org/1999/xlink">
    <!-- Generator: Sketch 51.1 (57501) - http://www.bohemiancoding.com/sketch -->
    <title>Group 5</title>
    <desc>Created with Sketch.</desc>
    <defs>
        <path d="M0.106599995,751 C-1.93906572,612.560401 25.4576824,516.61932 82.2968442,463.176754 C167.555587,383.012906 232.315818,369.848629 284.880532,320.922448 C337.445247,271.996266 356.664564,182.304812 386.250855,145.702467 C415.837145,109.100122 459.298386,65.9863303 530.839135,34.6544089 C578.532968,13.7664613 628.633466,2.21499169 681.14063,0 L820,0 L820,751 L0.106599995,751 Z" id="path-1"></path>
    </defs>
    <g id="Page-1" stroke="none" stroke-width="1" fill="none" fill-rule="evenodd">
        <g id="physics" transform="translate(-591.000000, 0.000000)">
            <g id="Group-5" transform="translate(591.000000, 0.000000)">
                <path d="M0.7265625,754.976563 C-1.30989583,617.278646 25.9635417,521.851562 82.546875,468.695313 C167.421875,388.960938 256.773438,364.773437 309.101562,316.109375 C361.429687,267.445312 388.1875,185.835937 417.640625,149.429688 C447.09375,113.023438 474.359375,75.9765625 545.578125,44.8125 C593.057292,24.0364583 637.429688,11.765625 678.695312,8 L816.929687,8 L816.929687,754.976563 L0.7265625,754.976563 Z" id="Path-2-Copy" fill="#919191"></path>
                <g id="Group-2" transform="translate(43.000000, 0.000000)">
                    <mask id="mask-2" fill="white">
                        <use xlink:href="#path-1"></use>
                    </mask>
                    <use id="Path-2-Copy-2" fill="#000000" xlink:href="#path-1"></use>
                    <g id="Group" opacity="0.269999981" mask="url(#mask-2)">
                        <g transform="translate(5.000000, 3.000000)">
                            <g id="col:-9,-row:8" stroke-width="1" fill="none" transform="translate(781.000000, 652.000000) rotate(-276.271373) translate(-781.000000, -652.000000) translate(754.726066, 628.030797)">
                                <polygon id="Path-3" fill="#4F4D4D" points="52.5370637 0.738234153 52.5370637 47.5236979 0.813187708 47.5236979"></polygon>
                                <rect id="Rectangle" fill="#434141" transform="translate(20.281633, 20.281633) rotate(48.000000) translate(-20.281633, -20.281633) " x="12.9064937" y="12.9064937" width="14.7502785" height="14.7502785"></rect>
                                <path d="M13.777751,33.4247932 C13.7102241,33.3117663 13.6008393,33.3117663 13.5333286,33.4247932 L11.2355663,37.2707736 L11.2355663,24.6602565 C11.2355663,24.5003317 11.1582515,24.3709217 11.0627058,24.3709217 C10.9671602,24.3709217 10.8898454,24.5003317 10.8898454,24.6602565 L10.8898454,37.2708008 L8.59209928,33.4247932 C8.52457238,33.3117663 8.41518753,33.3117663 8.34767683,33.4247932 C8.28014992,33.5378201 8.28014992,33.7209091 8.34767683,33.8339089 L10.9405027,38.1737956 C10.9742581,38.2302955 11.0184981,38.258559 11.062722,38.258559 C11.1069459,38.258559 11.1511698,38.2302955 11.1849414,38.1737956 L13.7777672,33.8339089 C13.8452617,33.720882 13.8452617,33.537793 13.777751,33.4247932 Z" id="Shape" fill="#908F8F" fill-rule="nonzero" transform="translate(11.062709, 31.314740) rotate(46.000000) translate(-11.062709, -31.314740) "></path>
                            </g>
                            <g id="col:-6,-row:8" stroke-width="1" fill="none" transform="translate(528.333333, 714.000000) rotate(-271.189006) translate(-528.333333, -714.000000) translate(501.504336, 689.524424)">
                                <polygon id="Path-3" fill="#4F4D4D" points="53.6469625 0.753830098 53.6469625 48.5276842 0.830367123 48.5276842"></polygon>
                                <rect id="Rectangle" fill="#434141" transform="translate(20.710103, 20.710103) rotate(48.000000) translate(-20.710103, -20.710103) " x="13.1791565" y="13.1791565" width="15.0618931" height="15.0618931"></rect>
                                <path d="M14.06882,34.1309259 C13.9998665,34.0155112 13.8881708,34.0155112 13.8192339,34.1309259 L11.472929,38.0581565 L11.472929,25.1812294 C11.472929,25.017926 11.3939808,24.8857821 11.2964167,24.8857821 C11.1988526,24.8857821 11.1199044,25.017926 11.1199044,25.1812294 L11.1199044,38.0581842 L8.7736161,34.1309259 C8.70466262,34.0155112 8.59296691,34.0155112 8.52402997,34.1309259 C8.45507649,34.2463406 8.45507649,34.4332975 8.52402997,34.5486846 L11.1716319,38.9802557 C11.2061004,39.0379492 11.2512751,39.0668098 11.2964333,39.0668098 C11.3415914,39.0668098 11.3867496,39.0379492 11.4212346,38.9802557 L14.0688365,34.5486846 C14.1377569,34.4332698 14.1377569,34.2463129 14.06882,34.1309259 Z" id="Shape" fill="#908F8F" fill-rule="nonzero" transform="translate(11.296420, 31.976296) rotate(46.000000) translate(-11.296420, -31.976296) "></path>
                            </g>
                            <g id="col:-4,-row:8" stroke-width="1" fill="none" transform="translate(199.888889, 701.000000) rotate(-201.477028) translate(-199.888889, -701.000000) translate(170.811598, 674.473348)">
                                <polygon id="Path-3" fill="#4F4D4D" points="58.1426265 0.817001743 58.1426265 52.5943481 0.89995264 52.5943481"></polygon>
                                <rect id="Rectangle" fill="#434141" transform="translate(22.445628, 22.445628) rotate(48.000000) translate(-22.445628, -22.445628) " x="14.2835817" y="14.2835817" width="16.3240934" height="16.3240934"></rect>
                                <path d="M15.2477999,36.9911284 C15.173068,36.8660418 15.0520121,36.8660418 14.9772982,36.9911284 L12.4343709,41.2474645 L12.4343709,27.2914393 C12.4343709,27.1144509 12.3488068,26.9712332 12.2430667,26.9712332 C12.1373266,26.9712332 12.0517625,27.1144509 12.0517625,27.2914393 L12.0517625,41.2474945 L9.50885307,36.9911284 C9.43412123,36.8660418 9.31306532,36.8660418 9.2383514,36.9911284 C9.16361956,37.116215 9.16361956,37.318839 9.2383514,37.4438956 L12.1078248,42.2468364 C12.1451818,42.3093647 12.1941421,42.3406439 12.2430846,42.3406439 C12.2920271,42.3406439 12.3409695,42.3093647 12.3783444,42.2468364 L15.2478178,37.4438956 C15.3225138,37.318809 15.3225138,37.116185 15.2477999,36.9911284 Z" id="Shape" fill="#908F8F" fill-rule="nonzero" transform="translate(12.243070, 34.655939) rotate(46.000000) translate(-12.243070, -34.655939) "></path>
                            </g>
                            <g id="col:-7,-row:7" stroke-width="1" fill="none" transform="translate(634.555556, 643.125000) rotate(-190.110371) translate(-634.555556, -643.125000) translate(605.435593, 616.559420)">
                                <polygon id="Path-3" fill="#4F4D4D" points="58.2279517 0.818200706 58.2279517 52.6715311 0.901273335 52.6715311"></polygon>
                                <rect id="Rectangle" fill="#434141" transform="translate(22.478568, 22.478568) rotate(48.000000) translate(-22.478568, -22.478568) " x="14.3045431" y="14.3045431" width="16.3480492" height="16.3480492"></rect>
                                <path d="M15.2701762,37.0454134 C15.1953347,36.9201433 15.0741012,36.9201433 14.9992776,37.0454134 L12.4526185,41.3079958 L12.4526185,27.3314899 C12.4526185,27.1542418 12.3669288,27.0108139 12.2610335,27.0108139 C12.1551383,27.0108139 12.0694486,27.1542418 12.0694486,27.3314899 L12.0694486,41.3080259 L9.52280746,37.0454134 C9.44796594,36.9201433 9.32673238,36.9201433 9.25190883,37.0454134 C9.17706731,37.1706836 9.17706731,37.373605 9.25190883,37.4988451 L12.1255932,42.3088343 C12.163005,42.3714544 12.2120372,42.4027794 12.2610515,42.4027794 C12.3100658,42.4027794 12.3590801,42.3714544 12.3965098,42.3088343 L15.2701942,37.4988451 C15.3449998,37.3735749 15.3449998,37.1706535 15.2701762,37.0454134 Z" id="Shape" fill="#908F8F" fill-rule="nonzero" transform="translate(12.261037, 34.706797) rotate(46.000000) translate(-12.261037, -34.706797) "></path>
                            </g>
                            <g id="col:-5,-row:7" stroke-width="1" fill="none" transform="translate(433.111111, 637.125000) rotate(-85.490120) translate(-433.111111, -637.125000) translate(406.806294, 613.127623)">
                                <polygon id="Path-3" fill="#4F4D4D" points="52.5988173 0.739101895 52.5988173 47.5795586 0.814143553 47.5795586"></polygon>
                                <rect id="Rectangle" fill="#434141" transform="translate(20.305473, 20.305473) rotate(48.000000) translate(-20.305473, -20.305473) " x="12.9216643" y="12.9216643" width="14.7676164" height="14.7676164"></rect>
                                <path d="M13.7939458,33.4640817 C13.7263395,33.3509219 13.6168261,33.3509219 13.549236,33.4640817 L11.2487729,37.3145828 L11.2487729,24.6892429 C11.2487729,24.5291301 11.1713672,24.399568 11.0757093,24.399568 C10.9800513,24.399568 10.9026456,24.5291301 10.9026456,24.6892429 L10.9026456,37.31461 L8.60219869,33.4640817 C8.53459241,33.3509219 8.42507899,33.3509219 8.35748893,33.4640817 C8.28988265,33.5772415 8.28988265,33.7605456 8.35748893,33.8736783 L10.9533625,38.2186662 C10.9871575,38.2752325 11.0314496,38.3035292 11.0757255,38.3035292 C11.1200013,38.3035292 11.1642772,38.2752325 11.1980885,38.2186662 L13.793962,33.8736783 C13.8615359,33.7605185 13.8615359,33.5772143 13.7939458,33.4640817 Z" id="Shape" fill="#908F8F" fill-rule="nonzero" transform="translate(11.075712, 31.351549) rotate(46.000000) translate(-11.075712, -31.351549) "></path>
                            </g>
                            <g id="col:-7,-row:6" stroke-width="1" fill="none" transform="translate(623.555556, 563.250000) rotate(-46.270554) translate(-623.555556, -563.250000) translate(596.646731, 538.701599)">
                                <polygon id="Path-3" fill="#4F4D4D" points="53.8065849 0.756073063 53.8065849 48.6720747 0.832837818 48.6720747"></polygon>
                                <rect id="Rectangle" fill="#434141" transform="translate(20.771724, 20.771724) rotate(48.000000) translate(-20.771724, -20.771724) " x="13.21837" y="13.21837" width="15.1067086" height="15.1067086"></rect>
                                <path d="M14.1106807,34.2324799 C14.0415221,34.1167217 13.929494,34.1167217 13.860352,34.2324799 L11.5070659,38.1713957 L11.5070659,25.2561543 C11.5070659,25.092365 11.4278828,24.9598279 11.3300283,24.9598279 C11.2321739,24.9598279 11.1529908,25.092365 11.1529908,25.2561543 L11.1529908,38.1714235 L8.79972133,34.2324799 C8.73056268,34.1167217 8.61853463,34.1167217 8.54939258,34.2324799 C8.48023393,34.348238 8.48023393,34.5357512 8.54939258,34.6514815 L11.2048723,39.0962385 C11.2394433,39.1541037 11.2847524,39.1830502 11.3300449,39.1830502 C11.3753375,39.1830502 11.42063,39.1541037 11.4552176,39.0962385 L14.1106973,34.6514815 C14.1798228,34.5357234 14.1798228,34.3482102 14.1106807,34.2324799 Z" id="Shape" fill="#908F8F" fill-rule="nonzero" transform="translate(11.330031, 32.071439) rotate(46.000000) translate(-11.330031, -32.071439) "></path>
                            </g>
                            <g id="col:-5,-row:6" stroke-width="1" fill="none" transform="translate(448.111111, 550.250000) rotate(-14.333414) translate(-448.111111, -550.250000) translate(418.448319, 523.189207)">
                                <polygon id="Path-3" fill="#4F4D4D" points="59.313388 0.833452912 59.313388 53.6533893 0.91807411 53.6533893"></polygon>
                                <rect id="Rectangle" fill="#434141" transform="translate(22.897594, 22.897594) rotate(48.000000) translate(-22.897594, -22.897594) " x="14.5711963" y="14.5711963" width="16.6527957" height="16.6527957"></rect>
                                <path d="M15.55483,37.7359827 C15.4785933,37.6083774 15.3550998,37.6083774 15.2788815,37.7359827 L12.6847497,42.0780246 L12.6847497,27.8409804 C12.6847497,27.6604282 12.5974627,27.5143267 12.4895934,27.5143267 C12.3817241,27.5143267 12.2944371,27.6604282 12.2944371,27.8409804 L12.2944371,42.0780552 L9.70032359,37.7359827 C9.62408694,37.6083774 9.50059345,37.6083774 9.42437509,37.7359827 C9.34813844,37.8635881 9.34813844,38.0702922 9.42437509,38.1978669 L12.3516283,43.0975199 C12.3897375,43.1613072 12.4396837,43.1932162 12.4896117,43.1932162 C12.5395396,43.1932162 12.5894676,43.1613072 12.6275951,43.0975199 L15.5548482,38.1978669 C15.6310483,38.0702615 15.6310483,37.8635574 15.55483,37.7359827 Z" id="Shape" fill="#908F8F" fill-rule="nonzero" transform="translate(12.489597, 35.353771) rotate(46.000000) translate(-12.489597, -35.353771) "></path>
                            </g>
                            <g id="col:-7,-row:5" stroke-width="1" fill="none" transform="translate(722.555556, 407.375000) rotate(-120.995383) translate(-722.555556, -407.375000) translate(695.897945, 383.055776)">
                                <polygon id="Path-3" fill="#4F4D4D" points="53.30426 0.749014552 53.30426 48.2176843 0.825062651 48.2176843"></polygon>
                                <rect id="Rectangle" fill="#434141" transform="translate(20.577805, 20.577805) rotate(48.000000) translate(-20.577805, -20.577805) " x="13.0949666" y="13.0949666" width="14.9656761" height="14.9656761"></rect>
                                <path d="M13.9789469,33.9128939 C13.9104339,33.7982165 13.7994517,33.7982165 13.7309551,33.9128939 L11.3996387,37.815037 L11.3996387,25.0203691 C11.3996387,24.8581089 11.3211949,24.7268091 11.224254,24.7268091 C11.1273131,24.7268091 11.0488693,24.8581089 11.0488693,25.0203691 L11.0488693,37.8150646 L8.71756932,33.9128939 C8.64905631,33.7982165 8.53807413,33.7982165 8.46957757,33.9128939 C8.40106457,34.0275714 8.40106457,34.213334 8.46957757,34.3279839 L11.1002664,38.7312457 C11.1345146,38.7885707 11.1794008,38.8172469 11.2242705,38.8172469 C11.2691401,38.8172469 11.3140098,38.7885707 11.3482745,38.7312457 L13.9789633,34.3279839 C14.0474435,34.2133065 14.0474435,34.0275439 13.9789469,33.9128939 Z" id="Shape" fill="#908F8F" fill-rule="nonzero" transform="translate(11.224257, 31.772028) rotate(46.000000) translate(-11.224257, -31.772028) "></path>
                            </g>
                            <g id="col:-2,-row:5" stroke-width="1" fill="none" transform="translate(179.444444, 465.375000) rotate(-38.996014) translate(-179.444444, -465.375000) translate(152.793414, 441.061779)">
                                <polygon id="Path-3" fill="#4F4D4D" points="53.2911023 0.748829664 53.2911023 48.2057821 0.824858991 48.2057821"></polygon>
                                <rect id="Rectangle" fill="#434141" transform="translate(20.572725, 20.572725) rotate(48.000000) translate(-20.572725, -20.572725) " x="13.0917342" y="13.0917342" width="14.961982" height="14.961982"></rect>
                                <path d="M13.9754963,33.9045228 C13.9070002,33.7898737 13.7960454,33.7898737 13.7275658,33.9045228 L11.3968248,37.8057027 L11.3968248,25.014193 C11.3968248,24.8519729 11.3184004,24.7207055 11.2214834,24.7207055 C11.1245664,24.7207055 11.046142,24.8519729 11.046142,25.014193 L11.046142,37.8057302 L8.71541746,33.9045228 C8.64692137,33.7898737 8.53596658,33.7898737 8.46748693,33.9045228 C8.39899084,34.019172 8.39899084,34.2048887 8.46748693,34.3195104 L11.0975264,38.7216853 C11.1317662,38.7789961 11.1766412,38.8076652 11.2214998,38.8076652 C11.2663584,38.8076652 11.3112171,38.7789961 11.3454733,38.7216853 L13.9755127,34.3195104 C14.043976,34.2048612 14.043976,34.0191445 13.9754963,33.9045228 Z" id="Shape" fill="#908F8F" fill-rule="nonzero" transform="translate(11.221486, 31.764185) rotate(46.000000) translate(-11.221486, -31.764185) "></path>
                            </g>
                            <g id="col:-7,-row:4" stroke-width="1" fill="none" transform="translate(628.555556, 361.500000) rotate(-141.347008) translate(-628.555556, -361.500000) translate(598.963591, 334.503822)">
                                <polygon id="Path-3" fill="#4F4D4D" points="59.1717614 0.83146282 59.1717614 53.5252774 0.915881963 53.5252774"></polygon>
                                <rect id="Rectangle" fill="#434141" transform="translate(22.842920, 22.842920) rotate(48.000000) translate(-22.842920, -22.842920) " x="14.5364036" y="14.5364036" width="16.6130327" height="16.6130327"></rect>
                                <path d="M15.5176886,37.6458779 C15.441634,37.5185773 15.3184354,37.5185773 15.242399,37.6458779 L12.6544614,41.977552 L12.6544614,27.7745026 C12.6544614,27.5943815 12.5673828,27.4486288 12.4597711,27.4486288 C12.3521594,27.4486288 12.2650808,27.5943815 12.2650808,27.7745026 L12.2650808,41.9775826 L9.67716147,37.6458779 C9.60110685,37.5185773 9.47790823,37.5185773 9.40187187,37.6458779 C9.32581726,37.7731786 9.32581726,37.9793891 9.40187187,38.1066592 L12.3221355,42.994613 C12.3601536,43.058248 12.4099806,43.0900808 12.4597894,43.0900808 C12.5095981,43.0900808 12.5594069,43.058248 12.5974433,42.994613 L15.5177069,38.1066592 C15.593725,37.9793586 15.593725,37.773148 15.5176886,37.6458779 Z" id="Shape" fill="#908F8F" fill-rule="nonzero" transform="translate(12.459775, 35.269355) rotate(46.000000) translate(-12.459775, -35.269355) "></path>
                            </g>
                            <g id="col:-5,-row:4" stroke-width="1" fill="none" transform="translate(449.111111, 378.500000) rotate(-81.004179) translate(-449.111111, -378.500000) translate(422.515350, 354.237200)">
                                <polygon id="Path-3" fill="#4F4D4D" points="53.1805872 0.747276741 53.1805872 48.105813 0.823148398 48.105813"></polygon>
                                <rect id="Rectangle" fill="#434141" transform="translate(20.530061, 20.530061) rotate(48.000000) translate(-20.530061, -20.530061) " x="13.0645846" y="13.0645846" width="14.9309538" height="14.9309538"></rect>
                                <path d="M13.9465139,33.8342116 C13.8781599,33.7198002 13.7674352,33.7198002 13.6990975,33.8342116 L11.3731901,37.7273012 L11.3731901,24.9623186 C11.3731901,24.8004349 11.2949283,24.6694397 11.1982123,24.6694397 C11.1014963,24.6694397 11.0232345,24.8004349 11.0232345,24.9623186 L11.0232345,37.7273287 L8.69734342,33.8342116 C8.62898938,33.7198002 8.51826469,33.7198002 8.44992705,33.8342116 C8.38157301,33.948623 8.38157301,34.1339546 8.44992705,34.2483385 L11.0745123,38.6413842 C11.1086811,38.6985762 11.1534631,38.7271859 11.1982287,38.7271859 C11.2429943,38.7271859 11.2877599,38.6985762 11.3219451,38.6413842 L13.9465303,34.2483385 C14.0148516,34.1339272 14.0148516,33.9485955 13.9465139,33.8342116 Z" id="Shape" fill="#908F8F" fill-rule="nonzero" transform="translate(11.198215, 31.698313) rotate(46.000000) translate(-11.198215, -31.698313) "></path>
                            </g>
                            <g id="col:-3,-row:4" stroke-width="1" fill="none" transform="translate(256.666667, 371.500000) rotate(-61.822776) translate(-256.666667, -371.500000) translate(228.966778, 346.229926)">
                                <polygon id="Path-3" fill="#4F4D4D" points="55.3883876 0.778300052 55.3883876 50.1029333 0.857321533 50.1029333"></polygon>
                                <rect id="Rectangle" fill="#434141" transform="translate(21.382370, 21.382370) rotate(48.000000) translate(-21.382370, -21.382370) " x="13.6069629" y="13.6069629" width="15.5508147" height="15.5508147"></rect>
                                <path d="M14.5255056,35.2388442 C14.4543139,35.119683 14.3389924,35.119683 14.2678177,35.2388442 L11.8453499,39.2935561 L11.8453499,25.9986332 C11.8453499,25.8300288 11.763839,25.6935954 11.6631078,25.6935954 C11.5623767,25.6935954 11.4808658,25.8300288 11.4808658,25.9986332 L11.4808658,39.2935847 L9.058415,35.2388442 C8.98722323,35.119683 8.87190179,35.119683 8.8007271,35.2388442 C8.72953533,35.3580054 8.72953533,35.5510311 8.8007271,35.6701637 L11.5342724,40.2455874 C11.5698598,40.3051536 11.6165009,40.3349511 11.6631249,40.3349511 C11.7097489,40.3349511 11.756373,40.3051536 11.7919774,40.2455874 L14.5255227,35.6701637 C14.5966803,35.5510025 14.5966803,35.3579768 14.5255056,35.2388442 Z" id="Shape" fill="#908F8F" fill-rule="nonzero" transform="translate(11.663111, 33.014273) rotate(46.000000) translate(-11.663111, -33.014273) "></path>
                            </g>
                            <g id="col:-8,-row:3" stroke-width="1" fill="none" transform="translate(767.777778, 247.625000) rotate(-329.763950) translate(-767.777778, -247.625000) translate(737.665141, 220.153823)">
                                <polygon id="Path-3" fill="#4F4D4D" points="60.2128913 0.846092448 60.2128913 54.4670573 0.931996949 54.4670573"></polygon>
                                <rect id="Rectangle" fill="#434141" transform="translate(23.244842, 23.244842) rotate(48.000000) translate(-23.244842, -23.244842) " x="14.7921724" y="14.7921724" width="16.9053398" height="16.9053398"></rect>
                                <path d="M15.7907231,38.308259 C15.7133303,38.1787185 15.587964,38.1787185 15.5105898,38.308259 L12.8771173,42.716149 L12.8771173,28.2631963 C12.8771173,28.079906 12.7885065,27.9315888 12.6790014,27.9315888 C12.5694962,27.9315888 12.4808855,28.079906 12.4808855,28.2631963 L12.4808855,42.7161801 L9.84743159,38.308259 C9.77003879,38.1787185 9.64467248,38.1787185 9.56729826,38.308259 C9.48990546,38.4377995 9.48990546,38.6476383 9.56729826,38.7771477 L12.538944,43.7511053 C12.5776311,43.81586 12.6283348,43.8482529 12.67902,43.8482529 C12.7297051,43.8482529 12.7803902,43.81586 12.8190959,43.7511053 L15.7907417,38.7771477 C15.8680973,38.6476072 15.8680973,38.4377684 15.7907231,38.308259 Z" id="Shape" fill="#908F8F" fill-rule="nonzero" transform="translate(12.679005, 35.889921) rotate(46.000000) translate(-12.679005, -35.889921) "></path>
                            </g>
                            <g id="col:-5,-row:3" stroke-width="1" fill="none" transform="translate(456.111111, 282.625000) rotate(-226.650733) translate(-456.111111, -282.625000) translate(428.882211, 257.784600)">
                                <polygon id="Path-3" fill="#4F4D4D" points="54.446605 0.765066421 54.446605 49.2510206 0.84274428 49.2510206"></polygon>
                                <rect id="Rectangle" fill="#434141" transform="translate(21.018800, 21.018800) rotate(48.000000) translate(-21.018800, -21.018800) " x="13.3756003" y="13.3756003" width="15.2864003" height="15.2864003"></rect>
                                <path d="M14.2785248,34.6396693 C14.2085435,34.5225343 14.0951829,34.5225343 14.0252185,34.6396693 L11.6439404,38.6254379 L11.6439404,25.5565719 C11.6439404,25.3908343 11.5638155,25.2567207 11.4647971,25.2567207 C11.3657787,25.2567207 11.2856537,25.3908343 11.2856537,25.5565719 L11.2856537,38.625466 L8.9043925,34.6396693 C8.83441122,34.5225343 8.72105062,34.5225343 8.65108613,34.6396693 C8.58110485,34.7568044 8.58110485,34.946548 8.65108613,35.063655 L11.3381523,39.5612815 C11.3731345,39.619835 11.4189826,39.6491258 11.4648139,39.6491258 C11.5106451,39.6491258 11.5564764,39.619835 11.5914755,39.5612815 L14.2785416,35.063655 C14.3484893,34.9465199 14.3484893,34.7567763 14.2785248,34.6396693 Z" id="Shape" fill="#908F8F" fill-rule="nonzero" transform="translate(11.464800, 32.452923) rotate(46.000000) translate(-11.464800, -32.452923) "></path>
                            </g>
                            <g id="col:-6,-row:2" stroke-width="1" fill="none" transform="translate(537.333333, 165.750000) rotate(-215.936627) translate(-537.333333, -165.750000) translate(507.227151, 138.284711)">
                                <polygon id="Path-3" fill="#4F4D4D" points="60.1999863 0.84591111 60.1999863 54.4553837 0.9317972 54.4553837"></polygon>
                                <rect id="Rectangle" fill="#434141" transform="translate(23.239860, 23.239860) rotate(48.000000) translate(-23.239860, -23.239860) " x="14.789002" y="14.789002" width="16.9017166" height="16.9017166"></rect>
                                <path d="M15.7873388,38.3000486 C15.7099626,38.1705359 15.5846231,38.1705359 15.5072655,38.3000486 L12.8743574,42.7069939 L12.8743574,28.2571388 C12.8743574,28.0738878 12.7857657,27.9256024 12.676284,27.9256024 C12.5668023,27.9256024 12.4782105,28.0738878 12.4782105,28.2571388 L12.4782105,42.707025 L9.84532105,38.3000486 C9.76794483,38.1705359 9.6426054,38.1705359 9.56524776,38.3000486 C9.48787154,38.4295613 9.48787154,38.6393552 9.56524776,38.7688369 L12.5362566,43.7417283 C12.5749354,43.8064692 12.6256283,43.8388551 12.6763025,43.8388551 C12.7269768,43.8388551 12.7776511,43.8064692 12.8163485,43.7417283 L15.7873573,38.7688369 C15.8646964,38.6393241 15.8646964,38.4295303 15.7873388,38.3000486 Z" id="Shape" fill="#908F8F" fill-rule="nonzero" transform="translate(12.676287, 35.882229) rotate(46.000000) translate(-12.676287, -35.882229) "></path>
                            </g>
                            <g id="col:-7,-row:1" stroke-width="1" fill="none" transform="translate(628.555556, 87.875000) rotate(-237.915477) translate(-628.555556, -87.875000) translate(601.947370, 63.600866)">
                                <polygon id="Path-3" fill="#4F4D4D" points="53.2054302 0.747625827 53.2054302 48.1282853 0.823532927 48.1282853"></polygon>
                                <rect id="Rectangle" fill="#434141" transform="translate(20.539652, 20.539652) rotate(48.000000) translate(-20.539652, -20.539652) " x="13.0706876" y="13.0706876" width="14.9379287" height="14.9379287"></rect>
                                <path d="M13.953029,33.8500171 C13.884643,33.7355522 13.7738666,33.7355522 13.705497,33.8500171 L11.378503,37.7449253 L11.378503,24.9739796 C11.378503,24.8120202 11.3002046,24.6809639 11.2034435,24.6809639 C11.1066823,24.6809639 11.0283839,24.8120202 11.0283839,24.9739796 L11.0283839,37.7449528 L8.70140634,33.8500171 C8.63302036,33.7355522 8.52224395,33.7355522 8.45387439,33.8500171 C8.38548841,33.9644819 8.38548841,34.1499001 8.45387439,34.2643375 L11.0796857,38.6594353 C11.1138705,38.716654 11.1586734,38.7452771 11.2034599,38.7452771 C11.2482464,38.7452771 11.2930329,38.716654 11.3272341,38.6594353 L13.9530454,34.2643375 C14.0213985,34.1498726 14.0213985,33.9644544 13.953029,33.8500171 Z" id="Shape" fill="#908F8F" fill-rule="nonzero" transform="translate(11.203447, 31.713120) rotate(46.000000) translate(-11.203447, -31.713120) "></path>
                            </g>
                            <g id="col:-9,-row:0" stroke-width="1" fill="none" transform="translate(757.000000, 42.000000) rotate(-54.773149) translate(-757.000000, -42.000000) translate(726.292301, 13.985959)">
                                <polygon id="Path-3" fill="#4F4D4D" points="61.4027717 0.86281227 61.4027717 55.5433929 0.950414349 55.5433929"></polygon>
                                <rect id="Rectangle" fill="#434141" transform="translate(23.704189, 23.704189) rotate(48.000000) translate(-23.704189, -23.704189) " x="15.0844838" y="15.0844838" width="17.23941" height="17.23941"></rect>
                                <path d="M16.1027671,39.065277 C16.0238449,38.9331766 15.8960012,38.9331766 15.817098,39.065277 L13.1315849,43.5602724 L13.1315849,28.8217116 C13.1315849,28.6347993 13.0412231,28.4835511 12.929554,28.4835511 C12.8178849,28.4835511 12.7275231,28.6347993 12.7275231,28.8217116 L12.7275231,43.5603041 L10.0420289,39.065277 C9.96310671,38.9331766 9.83526301,38.9331766 9.75635977,39.065277 C9.6774376,39.1973774 9.6774376,39.4113629 9.75635977,39.5434316 L12.7867289,44.6156806 C12.8261805,44.681715 12.8778862,44.714748 12.9295729,44.714748 C12.9812596,44.714748 13.0329464,44.681715 13.0724169,44.6156806 L16.102786,39.5434316 C16.1816703,39.4113312 16.1816703,39.1973457 16.1027671,39.065277 Z" id="Shape" fill="#908F8F" fill-rule="nonzero" transform="translate(12.929558, 36.599150) rotate(46.000000) translate(-12.929558, -36.599150) "></path>
                            </g>
                            <g id="col:-9,-row:7" stroke-width="1" fill="none" transform="translate(725.000000, 720.125000) rotate(3.050000) translate(-725.000000, -720.125000) translate(688.652409, 702.456032)">
                                <path d="M0.277462526,18.1737955 L72.4177193,18.1737955" id="Line-2" stroke="#4F4D4D" stroke-linecap="square"></path>
                                <path d="M4.03862121,17.6689678 C12.6049889,2.18758649 23.8726889,2.18758649 37.8417213,17.6689678 C51.8107538,33.1503491 62.7554704,33.1503491 70.6758712,17.6689678" id="Path-4" stroke="#4F4D4D"></path>
                                <path d="M4.03862121,17.6689678 C12.4302461,-5.88965594 23.6636223,-5.88965594 37.7387498,17.6689678 C51.8138774,41.2275915 62.7929178,41.2275915 70.6758712,17.6689678" id="Path-6" stroke="#4F4D4D"></path>
                            </g>
                            <g id="col:-6,-row:7" stroke-width="1" fill="none" transform="translate(528.333333, 650.125000) rotate(-146.453019) translate(-528.333333, -650.125000) translate(491.278288, 632.112131)">
                                <path d="M0.282862941,18.5275226 L73.8272276,18.5275226" id="Line-2" stroke="#4F4D4D" stroke-linecap="square"></path>
                                <path d="M4.11722725,18.0128692 C12.8503271,2.23016476 24.337337,2.23016476 38.5782568,18.0128692 C52.8191767,33.7955737 63.9769167,33.7955737 72.0514769,18.0128692" id="Path-4" stroke="#4F4D4D"></path>
                                <path d="M4.11722725,18.0128692 C12.6721832,-6.00428974 24.1242011,-6.00428974 38.4732811,18.0128692 C52.8223611,42.0300282 64.015093,42.0300282 72.0514769,18.0128692" id="Path-6" stroke="#4F4D4D"></path>
                            </g>
                            <g id="col:-2,-row:7" stroke-width="1" fill="none" transform="translate(113.444444, 705.125000) rotate(-273.069939) translate(-113.444444, -705.125000) translate(80.216529, 688.972541)">
                                <path d="M0.253648209,16.6139577 L66.2021825,16.6139577" id="Line-2" stroke="#4F4D4D" stroke-linecap="square"></path>
                                <path d="M3.69199059,16.1524589 C11.5231159,1.99982824 21.8237211,1.99982824 34.5938061,16.1524589 C47.3638912,30.3050895 57.3692343,30.3050895 64.6098354,16.1524589" id="Path-4" stroke="#4F4D4D"></path>
                                <path d="M3.69199059,16.1524589 C11.3633711,-5.38415295 21.6325984,-5.38415295 34.4996725,16.1524589 C47.3667467,37.6890707 57.4034676,37.6890707 64.6098354,16.1524589" id="Path-6" stroke="#4F4D4D"></path>
                            </g>
                            <g id="col:-0,-row:7" stroke-width="1" fill="none" transform="translate(27.000000, 630.125000) rotate(-76.180000) translate(-27.000000, -630.125000) translate(-10.937188, 611.683311)">
                                <path d="M0.289596855,18.968594 L75.584779,18.968594" id="Line-2" stroke="#4F4D4D" stroke-linecap="square"></path>
                                <path d="M4.21524311,18.4416886 C13.1562456,2.28325668 24.9167184,2.28325668 39.4966615,18.4416886 C54.0766046,34.6001205 65.4999689,34.6001205 73.7667543,18.4416886" id="Path-4" stroke="#4F4D4D"></path>
                                <path d="M4.21524311,18.4416886 C12.9738607,-6.14722953 24.6985086,-6.14722953 39.3891867,18.4416886 C54.0798648,43.0306067 65.5390541,43.0306067 73.7667543,18.4416886" id="Path-6" stroke="#4F4D4D"></path>
                            </g>
                            <g id="col:-3,-row:6" stroke-width="1" fill="none" transform="translate(269.666667, 627.250000) rotate(-307.480011) translate(-269.666667, -627.250000) translate(231.285880, 608.592673)">
                                <path d="M0.292983107,19.1903935 L76.4685908,19.1903935" id="Line-2" stroke="#4F4D4D" stroke-linecap="square"></path>
                                <path d="M4.26453188,18.657327 C13.3100814,2.30995477 25.2080692,2.30995477 39.9584954,18.657327 C54.7089216,35.0046992 66.2658591,35.0046992 74.629308,18.657327" id="Path-4" stroke="#4F4D4D"></path>
                                <path d="M4.26453188,18.657327 C13.1255639,-6.219109 24.9873079,-6.219109 39.8497639,18.657327 C54.7122199,43.533763 66.3054013,43.533763 74.629308,18.657327" id="Path-6" stroke="#4F4D4D"></path>
                            </g>
                            <g id="col:-5,-row:5" stroke-width="1" fill="none" transform="translate(448.111111, 458.375000) rotate(-301.763714) translate(-448.111111, -458.375000) translate(411.254880, 440.458776)">
                                <path d="M0.281345277,18.4281157 L73.4311174,18.4281157" id="Line-2" stroke="#4F4D4D" stroke-linecap="square"></path>
                                <path d="M4.09513681,17.9162236 C12.7813804,2.21819911 24.2067582,2.21819911 38.3712703,17.9162236 C52.5357824,33.614248 63.633657,33.614248 71.6648943,17.9162236" id="Path-4" stroke="#4F4D4D"></path>
                                <path d="M4.09513681,17.9162236 C12.6041923,-5.97207452 23.9947659,-5.97207452 38.2668578,17.9162236 C52.5389497,41.8045216 63.6716285,41.8045216 71.6648943,17.9162236" id="Path-6" stroke="#4F4D4D"></path>
                            </g>
                            <g id="col:-3,-row:5" stroke-width="1" fill="none" transform="translate(266.666667, 467.375000) rotate(-27.611877) translate(-266.666667, -467.375000) translate(231.827455, 450.439272)">
                                <path d="M0.265948181,17.4196058 L69.4124752,17.4196058" id="Line-2" stroke="#4F4D4D" stroke-linecap="square"></path>
                                <path d="M3.87102352,16.9357279 C12.0818977,2.09680441 22.8820024,2.09680441 36.2713376,16.9357279 C49.6606728,31.7746514 60.1511974,31.7746514 67.7429116,16.9357279" id="Path-4" stroke="#4F4D4D"></path>
                                <path d="M3.87102352,16.9357279 C11.9144065,-5.64524263 22.6816118,-5.64524263 36.1726392,16.9357279 C49.6636667,39.5166984 60.1870909,39.5166984 67.7429116,16.9357279" id="Path-6" stroke="#4F4D4D"></path>
                            </g>
                            <g id="col:-9,-row:4" stroke-width="1" fill="none" transform="translate(769.000000, 351.500000) rotate(-141.114104) translate(-769.000000, -351.500000) translate(730.718479, 332.890927)">
                                <path d="M0.29222535,19.1407604 L76.2708163,19.1407604" id="Line-2" stroke="#4F4D4D" stroke-linecap="square"></path>
                                <path d="M4.25350232,18.6090726 C13.2756568,2.30398042 25.1428723,2.30398042 39.8551488,18.6090726 C54.5674252,34.9141648 66.0944725,34.9141648 74.4362905,18.6090726" id="Path-4" stroke="#4F4D4D"></path>
                                <path d="M4.25350232,18.6090726 C13.0916166,-6.20302421 24.922682,-6.20302421 39.7466985,18.6090726 C54.570715,43.4211695 66.1339124,43.4211695 74.4362905,18.6090726" id="Path-6" stroke="#4F4D4D"></path>
                            </g>
                            <g id="col:-7,-row:2" stroke-width="1" fill="none" transform="translate(652.555556, 147.750000) rotate(-236.182071) translate(-652.555556, -147.750000) translate(616.712557, 130.326320)">
                                <path d="M0.273610679,17.9214995 L71.4123873,17.9214995" id="Line-2" stroke="#4F4D4D" stroke-linecap="square"></path>
                                <path d="M3.98255544,17.4236801 C12.4300013,2.15721753 23.5412786,2.15721753 37.3163873,17.4236801 C51.0914959,32.6901426 61.8842736,32.6901426 69.6947202,17.4236801" id="Path-4" stroke="#4F4D4D"></path>
                                <path d="M3.98255544,17.4236801 C12.2576844,-5.80789335 23.3351143,-5.80789335 37.2148452,17.4236801 C51.0945762,40.6552535 61.9212012,40.6552535 69.6947202,17.4236801" id="Path-6" stroke="#4F4D4D"></path>
                            </g>
                            <g id="col:-5,-row:2" stroke-width="1" fill="none" transform="translate(412.111111, 182.750000) rotate(-166.973394) translate(-412.111111, -182.750000) translate(373.657756, 164.057397)">
                                <path d="M0.293537064,19.2266777 L76.6131737,19.2266777" id="Line-2" stroke="#4F4D4D" stroke-linecap="square"></path>
                                <path d="M4.27259504,18.6926033 C13.3352474,2.31432231 25.2557313,2.31432231 40.0340469,18.6926033 C54.8123624,35.0708843 66.3911512,35.0708843 74.7704133,18.6926033" id="Path-4" stroke="#4F4D4D"></path>
                                <path d="M4.27259504,18.6926033 C13.150381,-6.23086777 25.0345526,-6.23086777 39.9251098,18.6926033 C54.815667,43.6160744 66.4307682,43.6160744 74.7704133,18.6926033" id="Path-6" stroke="#4F4D4D"></path>
                            </g>
                            <g id="col:-6,-row:1" stroke-width="1" fill="none" transform="translate(511.333333, 84.875000) rotate(-223.080002) translate(-511.333333, -84.875000) translate(477.084422, 68.226224)">
                                <path d="M0.261442068,17.1244555 L68.2363798,17.1244555" id="Line-2" stroke="#4F4D4D" stroke-linecap="square"></path>
                                <path d="M3.80543455,16.6487761 C11.8771872,2.06127705 22.4942995,2.06127705 35.6567715,16.6487761 C48.8192435,31.2362752 59.1320212,31.2362752 66.5951046,16.6487761" id="Path-4" stroke="#4F4D4D"></path>
                                <path d="M3.80543455,16.6487761 C11.7125339,-5.54959205 22.2973042,-5.54959205 35.5597454,16.6487761 C48.8221867,38.8471443 59.1673064,38.8471443 66.5951046,16.6487761" id="Path-6" stroke="#4F4D4D"></path>
                            </g>
                            <g id="col:-4,-row:1" stroke-width="1" fill="none" transform="translate(537.888889, 419.875000) rotate(-351.053817) translate(-537.888889, -419.875000) translate(504.012873, 403.407492)">
                                <path d="M0.258595543,16.9380081 L67.4934368,16.9380081" id="Line-2" stroke="#4F4D4D" stroke-linecap="square"></path>
                                <path d="M3.7640018,16.4675079 C11.7478709,2.03883431 22.2493864,2.03883431 35.2685482,16.4675079 C48.2877101,30.8961814 58.4882045,30.8961814 65.8700314,16.4675079" id="Path-4" stroke="#4F4D4D"></path>
                                <path d="M3.7640018,16.4675079 C11.5850103,-5.48916929 22.0545359,-5.48916929 35.1725786,16.4675079 C48.2906213,38.424185 58.5231056,38.424185 65.8700314,16.4675079" id="Path-6" stroke="#4F4D4D"></path>
                            </g>
                            <g id="col:-5,-row:8" stroke-width="1" fill="none" transform="translate(382.111111, 708.000000) rotate(-260.293109) translate(-382.111111, -708.000000) translate(356.524775, 665.684137)">
                                <circle id="Oval" fill="#4F4D4D" cx="24.208616" cy="18.205662" r="9.34885345"></circle>
                                <rect id="Rectangle-2" fill="#4F4D4D" x="10.8249882" y="60.02948" width="8.85680853" height="24.6022459"></rect>
                                <path d="M15.2533925,18.205662 L15.2533925,59.5374351" id="Line" stroke="#4F4D4D" stroke-linecap="square"></path>
                                <path d="M32.9670095,18.205662 L32.9670095,59.5374351" id="Line-Copy" stroke="#4F4D4D" stroke-linecap="square"></path>
                                <polyline id="Path-8" stroke="#4F4D4D" points="29.2987762 56.5515297 32.8737901 59.873794 37.4050241 56.5515297"></polyline>
                                <path d="M0.492044918,1.47613476 L50.6806266,1.47613476" id="Line" stroke="#4F4D4D" stroke-linecap="square"></path>
                                <path d="M23.1261112,1.47613476 L23.1261112,18.205662" id="Line-3" stroke="#4F4D4D" stroke-linecap="square"></path>
                            </g>
                            <g id="col:-3,-row:7" stroke-width="1" fill="none" transform="translate(269.666667, 533.125000) rotate(-92.602581) translate(-269.666667, -533.125000) translate(243.104485, 489.195238)">
                                <circle id="Oval" fill="#4F4D4D" cx="25.1319166" cy="18.9000139" r="9.70541255"></circle>
                                <rect id="Rectangle-2" fill="#4F4D4D" x="11.2378461" y="62.3189648" width="9.19460136" height="25.5405593"></rect>
                                <path d="M15.8351468,18.9000139 L15.8351468,61.8081536" id="Line" stroke="#4F4D4D" stroke-linecap="square"></path>
                                <path d="M34.2243495,18.9000139 L34.2243495,61.8081536" id="Line-Copy" stroke="#4F4D4D" stroke-linecap="square"></path>
                                <polyline id="Path-8" stroke="#4F4D4D" points="30.4162122 58.7083677 34.1275747 62.1573409 38.831627 58.7083677"></polyline>
                                <path d="M0.510811187,1.53243356 L52.6135522,1.53243356" id="Line" stroke="#4F4D4D" stroke-linecap="square"></path>
                                <path d="M24.0081258,1.53243356 L24.0081258,18.9000139" id="Line-3" stroke="#4F4D4D" stroke-linecap="square"></path>
                            </g>
                            <g id="col:-9,-row:6" stroke-width="1" fill="none" transform="translate(789.000000, 564.250000) rotate(-7.820000) translate(-789.000000, -564.250000) translate(761.491414, 518.755032)">
                                <circle id="Oval" fill="#4F4D4D" cx="26.0273604" cy="19.5734166" r="10.0512139"></circle>
                                <rect id="Rectangle-2" fill="#4F4D4D" x="11.6382477" y="64.5393737" width="9.52220268" height="26.450563"></rect>
                                <path d="M16.3993491,19.5734166 L16.3993491,64.0103624" id="Line" stroke="#4F4D4D" stroke-linecap="square"></path>
                                <path d="M35.4437544,19.5734166 L35.4437544,64.0103624" id="Line-Copy" stroke="#4F4D4D" stroke-linecap="square"></path>
                                <polyline id="Path-8" stroke="#4F4D4D" points="31.4999341 60.800132 35.3435316 64.3719912 40.215188 60.800132"></polyline>
                                <path d="M0.52901126,1.58703378 L54.4881598,1.58703378" id="Line" stroke="#4F4D4D" stroke-linecap="square"></path>
                                <path d="M24.8635292,1.58703378 L24.8635292,19.5734166" id="Line-3" stroke="#4F4D4D" stroke-linecap="square"></path>
                            </g>
                            <g id="col:-6,-row:6" stroke-width="1" fill="none" transform="translate(547.333333, 557.250000) rotate(-295.272537) translate(-547.333333, -557.250000) translate(521.442666, 514.430819)">
                                <circle id="Oval" fill="#4F4D4D" cx="24.4965608" cy="18.4222058" r="9.46005161"></circle>
                                <rect id="Rectangle-2" fill="#4F4D4D" x="10.953744" y="60.7434893" width="8.96215415" height="24.8948726"></rect>
                                <path d="M15.434821,18.4222058 L15.434821,60.2455918" id="Line" stroke="#4F4D4D" stroke-linecap="square"></path>
                                <path d="M33.3591293,18.4222058 L33.3591293,60.2455918" id="Line-Copy" stroke="#4F4D4D" stroke-linecap="square"></path>
                                <polyline id="Path-8" stroke="#4F4D4D" points="29.6472649 57.2241711 33.2648011 60.5859514 37.849931 57.2241711"></polyline>
                                <path d="M0.497897453,1.49369236 L51.2834377,1.49369236" id="Line" stroke="#4F4D4D" stroke-linecap="square"></path>
                                <path d="M23.4011803,1.49369236 L23.4011803,18.4222058" id="Line-3" stroke="#4F4D4D" stroke-linecap="square"></path>
                            </g>
                            <g id="col:-2,-row:6" stroke-width="1" fill="none" transform="translate(152.444444, 600.250000) rotate(-298.450012) translate(-152.444444, -600.250000) translate(125.211970, 555.211677)">
                                <circle id="Oval" fill="#4F4D4D" cx="25.7661168" cy="19.376953" r="9.9503272"></circle>
                                <rect id="Rectangle-2" fill="#4F4D4D" x="11.5214315" y="63.8915747" width="9.42662577" height="26.1850716"></rect>
                                <path d="M16.2347444,19.376953 L16.2347444,63.3678732" id="Line" stroke="#4F4D4D" stroke-linecap="square"></path>
                                <path d="M35.0879959,19.376953 L35.0879959,63.3678732" id="Line-Copy" stroke="#4F4D4D" stroke-linecap="square"></path>
                                <polyline id="Path-8" stroke="#4F4D4D" points="31.1837608 60.1898647 34.988779 63.7258723 39.8115373 60.1898647"></polyline>
                                <path d="M0.523701432,1.57110429 L53.9412475,1.57110429" id="Line" stroke="#4F4D4D" stroke-linecap="square"></path>
                                <path d="M24.6139673,1.57110429 L24.6139673,19.376953" id="Line-3" stroke="#4F4D4D" stroke-linecap="square"></path>
                            </g>
                            <g id="col:-9,-row:5" stroke-width="1" fill="none" transform="translate(762.000000, 475.375000) rotate(-299.551438) translate(-762.000000, -475.375000) translate(736.707158, 433.544530)">
                                <circle id="Oval" fill="#4F4D4D" cx="23.9309258" cy="17.99683" r="9.2416154"></circle>
                                <rect id="Rectangle-2" fill="#4F4D4D" x="10.7008178" y="59.3408989" width="8.75521459" height="24.3200405"></rect>
                                <path d="M15.0784251,17.99683 L15.0784251,58.8544981" id="Line" stroke="#4F4D4D" stroke-linecap="square"></path>
                                <path d="M32.5888543,17.99683 L32.5888543,58.8544981" id="Line-Copy" stroke="#4F4D4D" stroke-linecap="square"></path>
                                <polyline id="Path-8" stroke="#4F4D4D" points="28.9626983 55.9028431 32.4967041 59.1869986 36.9759616 55.9028431"></polyline>
                                <path d="M0.48640081,1.45920243 L50.0992835,1.45920243" id="Line" stroke="#4F4D4D" stroke-linecap="square"></path>
                                <path d="M22.8608381,1.45920243 L22.8608381,17.99683" id="Line-3" stroke="#4F4D4D" stroke-linecap="square"></path>
                            </g>
                            <g id="col:-4,-row:5" stroke-width="1" fill="none" transform="translate(359.888889, 454.375000) rotate(-41.503301) translate(-359.888889, -454.375000) translate(332.794971, 409.565829)">
                                <circle id="Oval" fill="#4F4D4D" cx="25.6350207" cy="19.2783644" r="9.89970065"></circle>
                                <rect id="Rectangle-2" fill="#4F4D4D" x="11.4628113" y="63.5664989" width="9.37866377" height="26.0518438"></rect>
                                <path d="M16.1521432,19.2783644 L16.1521432,63.045462" id="Line" stroke="#4F4D4D" stroke-linecap="square"></path>
                                <path d="M34.9094707,19.2783644 L34.9094707,63.045462" id="Line-Copy" stroke="#4F4D4D" stroke-linecap="square"></path>
                                <polyline id="Path-8" stroke="#4F4D4D" points="31.0251001 59.883623 34.8107586 63.4016396 39.6089791 59.883623"></polyline>
                                <path d="M0.521036876,1.56311063 L53.6667982,1.56311063" id="Line" stroke="#4F4D4D" stroke-linecap="square"></path>
                                <path d="M24.4887332,1.56311063 L24.4887332,19.2783644" id="Line-3" stroke="#4F4D4D" stroke-linecap="square"></path>
                            </g>
                            <g id="col:-6,-row:4" stroke-width="1" fill="none" transform="translate(543.333333, 331.500000) rotate(-328.829987) translate(-543.333333, -331.500000) translate(518.491472, 290.415383)">
                                <circle id="Oval" fill="#4F4D4D" cx="23.5042285" cy="17.6759398" r="9.07683397"></circle>
                                <rect id="Rectangle-2" fill="#4F4D4D" x="10.5100183" y="58.2828287" width="8.59910587" height="23.8864052"></rect>
                                <path d="M14.8095712,17.6759398 L14.8095712,57.8051006" id="Line" stroke="#4F4D4D" stroke-linecap="square"></path>
                                <path d="M32.007783,17.6759398 L32.007783,57.8051006" id="Line-Copy" stroke="#4F4D4D" stroke-linecap="square"></path>
                                <polyline id="Path-8" stroke="#4F4D4D" points="28.4462826 54.9060747 31.9172759 58.1316725 36.3166665 54.9060747"></polyline>
                                <path d="M0.477728104,1.43318431 L49.2059947,1.43318431" id="Line" stroke="#4F4D4D" stroke-linecap="square"></path>
                                <path d="M22.4532209,1.43318431 L22.4532209,17.6759398" id="Line-3" stroke="#4F4D4D" stroke-linecap="square"></path>
                            </g>
                            <g id="col:-2,-row:4" stroke-width="1" fill="none" transform="translate(125.444444, 473.500000) rotate(-185.191610) translate(-125.444444, -473.500000) translate(98.983326, 429.737381)">
                                <circle id="Oval" fill="#4F4D4D" cx="25.036295" cy="18.8281034" r="9.66848551"></circle>
                                <rect id="Rectangle-2" fill="#4F4D4D" x="11.1950885" y="62.0818543" width="9.15961785" height="25.4433829"></rect>
                                <path d="M15.7748974,18.8281034 L15.7748974,61.5729867" id="Line" stroke="#4F4D4D" stroke-linecap="square"></path>
                                <path d="M34.0941331,18.8281034 L34.0941331,61.5729867" id="Line-Copy" stroke="#4F4D4D" stroke-linecap="square"></path>
                                <polyline id="Path-8" stroke="#4F4D4D" points="30.300485 58.4849948 33.9977265 61.9208454 38.6838809 58.4849948"></polyline>
                                <path d="M0.508867658,1.52660297 L52.4133688,1.52660297" id="Line" stroke="#4F4D4D" stroke-linecap="square"></path>
                                <path d="M23.9167799,1.52660297 L23.9167799,18.8281034" id="Line-3" stroke="#4F4D4D" stroke-linecap="square"></path>
                            </g>
                            <g id="col:-9,-row:3" stroke-width="1" fill="none" transform="translate(633.000000, 445.625000) rotate(-357.598651) translate(-633.000000, -445.625000) translate(608.973411, 405.888718)">
                                <circle id="Oval" fill="#4F4D4D" cx="22.7328553" cy="17.0958422" r="8.778946"></circle>
                                <rect id="Rectangle-2" fill="#4F4D4D" x="10.1650954" y="56.3700743" width="8.31689621" height="23.1024895"></rect>
                                <path d="M14.3235435,17.0958422 L14.3235435,55.9080245" id="Line" stroke="#4F4D4D" stroke-linecap="square"></path>
                                <path d="M30.9573359,17.0958422 L30.9573359,55.9080245" id="Line-Copy" stroke="#4F4D4D" stroke-linecap="square"></path>
                                <polyline id="Path-8" stroke="#4F4D4D" points="27.5127186 53.1041404 30.8697991 56.2238789 35.1248084 53.1041404"></polyline>
                                <path d="M0.462049789,1.38614937 L47.5911283,1.38614937" id="Line" stroke="#4F4D4D" stroke-linecap="square"></path>
                                <path d="M21.7163401,1.38614937 L21.7163401,17.0958422" id="Line-3" stroke="#4F4D4D" stroke-linecap="square"></path>
                            </g>
                            <g id="col:-6,-row:3" stroke-width="1" fill="none" transform="translate(592.333333, 247.625000) rotate(-263.479980) translate(-592.333333, -247.625000) translate(563.741787, 200.338981)">
                                <circle id="Oval" fill="#4F4D4D" cx="27.0520084" cy="20.343985" r="10.4469112"></circle>
                                <rect id="Rectangle-2" fill="#4F4D4D" x="12.0964235" y="67.0801668" width="9.89707378" height="27.4918716"></rect>
                                <path d="M17.0449604,20.343985 L17.0449604,66.5303293" id="Line" stroke="#4F4D4D" stroke-linecap="square"></path>
                                <path d="M36.839108,20.343985 L36.839108,66.5303293" id="Line-Copy" stroke="#4F4D4D" stroke-linecap="square"></path>
                                <polyline id="Path-8" stroke="#4F4D4D" points="32.740027 63.1937182 36.7349396 66.9061948 41.7983839 63.1937182"></polyline>
                                <path d="M0.549837432,1.6495123 L56.6332555,1.6495123" id="Line" stroke="#4F4D4D" stroke-linecap="square"></path>
                                <path d="M25.8423593,1.6495123 L25.8423593,20.343985" id="Line-3" stroke="#4F4D4D" stroke-linecap="square"></path>
                            </g>
                            <g id="col:-8,-row:1" stroke-width="1" fill="none" transform="translate(716.777778, 178.875000) rotate(-316.940002) translate(-716.777778, -178.875000) translate(692.928024, 139.431177)">
                                <circle id="Oval" fill="#4F4D4D" cx="22.5655414" cy="16.9700168" r="8.71433295"></circle>
                                <rect id="Rectangle-2" fill="#4F4D4D" x="10.0902803" y="55.9551905" width="8.25568384" height="22.9324551"></rect>
                                <path d="M14.2181222,16.9700168 L14.2181222,55.4965414" id="Line" stroke="#4F4D4D" stroke-linecap="square"></path>
                                <path d="M30.7294899,16.9700168 L30.7294899,55.4965414" id="Line-Copy" stroke="#4F4D4D" stroke-linecap="square"></path>
                                <polyline id="Path-8" stroke="#4F4D4D" points="27.310225 52.7132938 30.6425974 55.8100711 34.8662898 52.7132938"></polyline>
                                <path d="M0.458649102,1.37594731 L47.2408576,1.37594731" id="Line" stroke="#4F4D4D" stroke-linecap="square"></path>
                                <path d="M21.5565078,1.37594731 L21.5565078,16.9700168" id="Line-3" stroke="#4F4D4D" stroke-linecap="square"></path>
                            </g>
                            <polygon id="col:-8,-row:8" fill="#4F4D4D" transform="translate(615.777778, 713.000000) rotate(-182.224677) translate(-615.777778, -713.000000) " points="626.469788 694.573741 600.18835 711.863356 620.592504 713.807792 602.844982 731.426259 631.367205 711.863356 611.68863 708.967732"></polygon>
                            <polygon id="col:-3,-row:8" fill="#4F4D4D" transform="translate(271.666667, 724.000000) rotate(-282.429316) translate(-271.666667, -724.000000) " points="281.669486 706.761469 257.082109 722.936622 276.171043 724.755723 259.567499 741.238531 286.251224 722.936622 267.841099 720.227646"></polygon>
                            <polygon id="col:-8,-row:7" fill="#4F4D4D" transform="translate(721.777778, 650.125000) rotate(-243.677930) translate(-721.777778, -650.125000) " points="731.769092 632.906297 707.209995 649.062845 726.276974 650.879854 709.692526 667.343703 736.34556 649.062845 717.95661 646.356985"></polygon>
                            <polygon id="col:-4,-row:7" fill="#4F4D4D" transform="translate(355.888889, 648.125000) rotate(-260.274842) translate(-355.888889, -648.125000) " points="367.23926 628.564144 339.339542 646.918367 361.000082 648.982532 342.159756 667.685856 372.438236 646.918367 351.547952 643.844445"></polygon>
                            <polygon id="col:-1,-row:7" fill="#4F4D4D" transform="translate(38.222222, 722.125000) rotate(-68.729046) translate(-38.222222, -722.125000) " points="48.3739949 704.629768 23.4204848 721.045787 42.793674 722.891976 25.9428842 739.620232 53.0239596 721.045787 34.3396877 718.296472"></polygon>
                            <polygon id="col:-8,-row:6" fill="#4F4D4D" transform="translate(714.777778, 560.250000) rotate(-165.298549) translate(-714.777778, -560.250000) " points="724.941081 542.734897 699.959228 559.169561 719.354422 561.017848 702.484493 577.765103 729.596327 559.169561 710.890833 556.417123"></polygon>
                            <polygon id="col:-4,-row:6" fill="#4F4D4D" transform="translate(352.888889, 564.250000) rotate(-269.176307) translate(-352.888889, -564.250000) " points="363.125398 546.608737 337.963602 563.161779 357.498498 565.023378 340.507056 581.891263 367.814175 563.161779 348.973947 560.389515"></polygon>
                            <polygon id="col:-1,-row:6" fill="#4F4D4D" transform="translate(77.222222, 521.250000) rotate(-191.459101) translate(-77.222222, -521.250000) " points="87.2581843 503.954353 62.5893418 520.183099 81.7415233 522.008227 65.0829659 538.545647 91.8551026 520.183099 73.3839793 517.465147"></polygon>
                            <polygon id="col:-8,-row:5" fill="#4F4D4D" transform="translate(689.777778, 480.375000) rotate(-72.001082) translate(-689.777778, -480.375000) " points="699.791067 463.118427 675.177956 479.310509 694.286869 481.131514 677.665946 497.631573 704.3776 479.310509 685.948206 476.598698"></polygon>
                            <polygon id="col:-6,-row:5" fill="#4F4D4D" transform="translate(543.333333, 473.375000) rotate(-295.632829) translate(-543.333333, -473.375000) " points="554.995489 453.276824 526.32939 472.135221 548.584927 474.256087 529.227072 493.473176 560.337277 472.135221 538.873154 468.976862"></polygon>
                            <polygon id="col:-4,-row:4" fill="#4F4D4D" transform="translate(366.888889, 360.500000) rotate(-355.276363) translate(-366.888889, -360.500000) " points="376.792607 343.432257 352.448826 359.447157 371.348639 361.248236 354.909592 377.567743 381.328952 359.447157 363.101223 356.76502"></polygon>
                            <polygon id="col:-7,-row:3" fill="#4F4D4D" transform="translate(687.555556, 299.625000) rotate(-225.596970) translate(-687.555556, -299.625000) " points="698.10409 281.446002 672.175321 298.503608 692.305674 300.421952 674.796304 317.803998 702.93579 298.503608 683.52128 295.646841"></polygon>
                            <polygon id="col:-4,-row:3" fill="#4F4D4D" transform="translate(365.888889, 276.625000) rotate(-131.360332) translate(-365.888889, -276.625000) " points="376.374155 258.555037 350.600903 275.510334 370.610516 277.417172 353.206165 294.694963 381.176875 275.510334 361.87881 272.670701"></polygon>
                            <polygon id="col:-8,-row:2" fill="#4F4D4D" transform="translate(783.777778, 188.750000) rotate(-24.071052) translate(-783.777778, -188.750000) " points="795.461511 168.614638 766.742374 187.507928 789.039088 189.632718 769.645418 208.885362 800.813182 187.507928 779.309347 184.343725"></polygon>
                            <polygon id="col:-7,-row:0" fill="#4F4D4D" transform="translate(661.555556, 29.000000) rotate(-295.282552) translate(-661.555556, -29.000000) " points="672.15145 10.7393843 646.106269 27.8735734 666.327 29.8005302 648.739019 47.2606157 677.004842 27.8735734 657.503167 25.0039804"></polygon>
                        </g>
                    </g>
                </g>
            </g>
        </g>
    </g>
</svg>